<svg width="137" height="146" viewBox="0 0 137 146" fill="none" xmlns="http://www.w3.org/2000/svg">
<g clip-path="url(#clip0_200_748)">
<path d="M113.438 142.65C113.438 144.5 95.358 146.01 73.048 146.01C50.738 146.01 32.658 144.51 32.658 142.65C32.658 140.79 50.738 139.29 73.048 139.29C95.358 139.29 113.438 140.79 113.438 142.65Z" fill="#E5E5E5"/>
<path d="M76.198 107.05L83.878 141.87C83.878 141.87 92.608 143.59 93.098 141.87C93.588 140.15 89.118 139.46 86.948 139.31L78.758 106.02L76.198 107.04V107.05Z" fill="black"/>
<path d="M68.618 27.3399L61.498 0.439941L60.118 28.2299L47.558 3.39994L51.988 30.8699L34.538 9.19994L44.578 35.1499L23.008 17.5799L38.228 40.8699L13.468 28.1699L33.198 47.7899L6.338 40.5099L29.718 55.5999L1.938 54.0699L27.938 63.9599L0.447998 68.2399L27.938 72.5099L1.938 82.4099L29.718 80.8799L6.338 95.9699L33.198 88.6899L13.468 108.31L38.228 95.6099L23.008 118.9L44.578 101.33L34.538 127.28L51.988 105.61L47.558 133.08L60.118 108.25L61.498 136.04L68.618 109.14L75.748 136.04L77.128 108.25L89.688 133.08L85.258 105.61L102.708 127.28L92.668 101.33L114.238 118.9L99.018 95.6099L123.778 108.31L104.048 88.6899L130.898 95.9699L107.518 80.8799L135.308 82.4099L109.298 72.5099L136.798 68.2399L109.298 63.9599L135.308 54.0699L107.518 55.5999L130.898 40.5099L104.048 47.7899L123.778 28.1699L99.018 40.8699L114.238 17.5799L92.668 35.1499L102.708 9.19994L85.258 30.8699L89.688 3.39994L77.128 28.2299L75.748 0.439941L68.618 27.3399Z" fill="#7E58EC"/>
<path d="M100.018 16.5799C99.888 16.5799 99.748 16.5599 99.608 16.5199L95.118 15.0499C94.428 14.8299 94.058 14.0899 94.278 13.3999C94.498 12.7199 95.238 12.3399 95.928 12.5599L100.418 14.0299C101.108 14.2499 101.478 14.9899 101.258 15.6799C101.078 16.2299 100.568 16.5799 100.018 16.5799Z" fill="black"/>
<path d="M100.498 15.59C99.9181 15.59 99.3881 15.2 99.2381 14.61L97.8681 9.29999C97.6881 8.59999 98.1081 7.88999 98.8081 7.70999C99.5081 7.52999 100.218 7.94999 100.398 8.64999L101.768 13.96C101.948 14.66 101.528 15.37 100.828 15.55C100.718 15.58 100.608 15.59 100.498 15.59Z" fill="black"/>
<path d="M101.488 16.72C101.238 16.72 100.978 16.65 100.748 16.49C100.148 16.08 99.9981 15.27 100.408 14.68L104.178 9.16996C104.588 8.56996 105.398 8.41997 105.988 8.82997C106.588 9.23997 106.738 10.05 106.328 10.64L102.558 16.15C102.308 16.52 101.898 16.72 101.478 16.72" fill="black"/>
<path d="M101.018 17.3299C100.398 17.3299 99.8479 16.8899 99.7379 16.2599C99.6079 15.5499 100.078 14.8699 100.788 14.7399L107.158 13.5699C107.868 13.4399 108.548 13.9099 108.678 14.6199C108.808 15.3299 108.338 16.0099 107.628 16.1399L101.258 17.3099C101.178 17.3299 101.098 17.3299 101.018 17.3299Z" fill="black"/>
<path d="M97.2681 44.9099C97.2081 44.9099 97.1481 44.9099 97.0781 44.8999C96.3681 44.7999 95.8681 44.1399 95.9681 43.4199L99.9381 15.6299C100.038 14.9199 100.698 14.4199 101.418 14.5199C102.128 14.6199 102.628 15.2799 102.528 15.9999L98.5581 43.7799C98.4681 44.4299 97.9081 44.8999 97.2681 44.8999" fill="black"/>
<path d="M34.7281 16.9799H34.6981L29.9681 16.8799C29.2481 16.8599 28.6781 16.2699 28.6881 15.5499C28.6981 14.8399 29.2881 14.2699 29.9881 14.2699H30.0181L34.7381 14.3699C35.4581 14.3899 36.0281 14.9799 36.0181 15.6999C36.0081 16.4099 35.4181 16.9799 34.7181 16.9799" fill="black"/>
<path d="M34.898 15.8899C34.458 15.8899 34.028 15.6699 33.778 15.2599L30.918 10.5699C30.538 9.94992 30.738 9.14992 31.348 8.77992C31.958 8.40992 32.768 8.59992 33.138 9.20992L35.998 13.8999C36.378 14.5199 36.178 15.3199 35.568 15.6899C35.358 15.8199 35.118 15.8799 34.888 15.8799" fill="black"/>
<path d="M36.1779 16.6899C36.0479 16.6899 35.9179 16.6699 35.7879 16.6299C35.0979 16.4099 34.7179 15.6799 34.9379 14.9899L36.9379 8.61994C37.1579 7.92994 37.8879 7.54994 38.5779 7.76994C39.2679 7.98994 39.6479 8.71994 39.4279 9.40994L37.4279 15.7799C37.2479 16.3399 36.7379 16.6899 36.1879 16.6899" fill="black"/>
<path d="M35.9081 17.41C35.4381 17.41 34.9781 17.15 34.7481 16.7C34.4181 16.06 34.6681 15.27 35.3081 14.94L41.0681 11.96C41.7081 11.63 42.4981 11.88 42.8281 12.52C43.1581 13.16 42.9081 13.95 42.2681 14.28L36.5081 17.26C36.3181 17.36 36.1081 17.41 35.9081 17.41Z" fill="black"/>
<path d="M40.3381 44.88C39.7081 44.88 39.1481 44.42 39.0481 43.77L34.7481 16.03C34.6381 15.32 35.1281 14.65 35.8381 14.54C36.5481 14.43 37.2181 14.92 37.3281 15.63L41.6281 43.37C41.7381 44.08 41.2481 44.75 40.5381 44.86C40.4681 44.87 40.3981 44.88 40.3381 44.88Z" fill="black"/>
<path d="M64.448 111.66L64.958 140.85C64.958 140.85 56.128 142.57 56.248 140.85C56.378 139.13 59.128 138.46 61.368 138.29V111.66H64.438H64.448Z" fill="black"/>
<mask id="mask0_200_748" style="mask-type:luminance" maskUnits="userSpaceOnUse" x="71" y="37" width="21" height="23">
<path d="M71.2579 48.2699C71.0979 54.2799 75.4879 59.2699 81.0579 59.4199C86.6179 59.5599 91.2579 54.8099 91.4179 48.7899C91.5779 42.7799 87.1879 37.7899 81.6179 37.6399C81.5379 37.6399 81.4579 37.6399 81.3679 37.6399C75.9079 37.6399 71.4079 42.3499 71.2579 48.2699Z" fill="white"/>
</mask>
<g mask="url(#mask0_200_748)">
<path d="M71.2579 48.2699C71.0979 54.2799 75.4879 59.2699 81.0579 59.4199C86.6279 59.5599 91.2579 54.8099 91.4179 48.7899C91.5779 42.7799 87.1879 37.7899 81.6179 37.6399C76.0479 37.4999 71.4179 42.2499 71.2579 48.2699Z" fill="white"/>
<path d="M74.478 48.3699C74.378 52.4499 77.368 55.8399 81.148 55.9399C84.928 56.0499 88.078 52.8299 88.178 48.7499C88.278 44.6699 85.288 41.2799 81.508 41.1799C77.728 41.0699 74.578 44.2899 74.478 48.3699Z" fill="black"/>
</g>
<mask id="mask1_200_748" style="mask-type:luminance" maskUnits="userSpaceOnUse" x="44" y="37" width="21" height="23">
<path d="M44.318 48.2699C44.158 54.2799 48.548 59.2699 54.118 59.4199C59.688 59.5699 64.318 54.8099 64.478 48.7899C64.638 42.7799 60.248 37.7899 54.678 37.6399C54.598 37.6399 54.508 37.6399 54.428 37.6399C48.968 37.6399 44.468 42.3499 44.318 48.2699Z" fill="white"/>
</mask>
<g mask="url(#mask1_200_748)">
<path d="M44.318 48.2699C44.158 54.2799 48.548 59.2699 54.118 59.4199C59.688 59.5599 64.318 54.8099 64.478 48.7899C64.638 42.7799 60.248 37.7899 54.678 37.6399C49.108 37.4999 44.478 42.2499 44.318 48.2699Z" fill="white"/>
<path d="M47.5478 48.3398C47.4478 52.4198 50.4378 55.8098 54.2178 55.9098C57.9978 56.0198 61.1478 52.7998 61.2478 48.7198C61.3478 44.6398 58.3579 41.2498 54.5778 41.1498C50.7978 41.0398 47.6478 44.2598 47.5478 48.3398Z" fill="black"/>
</g>
<path d="M75.6879 34.58C75.2379 34.58 74.8279 34.27 74.7279 33.81C74.6179 33.28 74.9479 32.76 75.4779 32.65L87.2079 30.12C87.7379 30.01 88.2579 30.34 88.3679 30.87C88.4779 31.4 88.1479 31.92 87.6179 32.03L75.8879 34.56C75.8179 34.57 75.7479 34.58 75.6779 34.58" fill="black"/>
<path d="M60.998 34.84C60.918 34.84 60.828 34.83 60.748 34.81L49.138 31.78C48.618 31.64 48.298 31.11 48.438 30.59C48.578 30.07 49.108 29.75 49.628 29.89L61.248 32.92C61.768 33.06 62.088 33.59 61.948 34.11C61.828 34.55 61.438 34.84 60.998 34.84Z" fill="black"/>
<mask id="mask2_200_748" style="mask-type:luminance" maskUnits="userSpaceOnUse" x="57" y="59" width="21" height="13">
<path d="M67.488 63.4199C65.688 63.9399 63.808 63.5699 62.198 63.1899C59.758 62.6299 57.938 62.0599 57.928 64.5999C57.908 70.1499 63.018 72.6499 69.638 71.3599C75.858 70.1499 79.878 62.6599 75.948 59.9699C75.258 59.4999 74.678 59.2999 74.168 59.2999C72.148 59.2999 71.108 62.3699 67.478 63.4099" fill="white"/>
</mask>
<g mask="url(#mask2_200_748)">
<path d="M80.7667 51.0921L49.8672 60.1863L55.579 79.5932L86.4785 70.499L80.7667 51.0921Z" fill="black"/>
<path d="M79.5778 69.4399C80.4778 73.1799 76.9478 77.2499 71.6878 78.5099C66.4278 79.7799 61.4378 77.7699 60.5378 74.0199C59.6378 70.2799 63.1678 66.2099 68.4278 64.9499C73.6878 63.6799 78.6778 65.6899 79.5778 69.4399Z" fill="#F25763"/>
<path d="M62.458 67.1399L60.858 67.5799C59.778 67.8799 58.658 67.2499 58.358 66.1599L55.948 57.4899C55.648 56.4099 56.278 55.2899 57.368 54.9899L58.968 54.5499C60.048 54.2499 61.168 54.8799 61.468 55.9699L63.878 64.6399C64.178 65.7199 63.548 66.8399 62.458 67.1399Z" fill="white"/>
<path d="M69.008 65.9699L67.408 66.4099C66.328 66.7099 65.208 66.0799 64.908 64.9899L62.498 56.3199C62.198 55.2399 62.828 54.1199 63.918 53.8199L65.518 53.3799C66.598 53.0799 67.718 53.7099 68.018 54.7999L70.428 63.4699C70.728 64.5499 70.098 65.6699 69.008 65.9699Z" fill="white"/>
<path d="M75.1579 63.6199L73.5579 64.0599C72.4779 64.3599 71.3579 63.7299 71.0579 62.6399L68.6479 53.9699C68.3479 52.8899 68.9779 51.7699 70.0679 51.4699L71.6679 51.0299C72.7479 50.7299 73.8679 51.3599 74.1679 52.4499L76.5779 61.1199C76.8779 62.1999 76.2479 63.3199 75.1579 63.6199Z" fill="white"/>
</g>
</g>
<defs>
<clipPath id="clip0_200_748">
<rect width="136.35" height="145.56" fill="white" transform="translate(0.447998 0.439941)"/>
</clipPath>
</defs>
</svg>
