<svg xmlns="http://www.w3.org/2000/svg" width="78.329" height="45" viewBox="0 0 78.329 45"><g transform="translate(-288.82 -221.731)"><g transform="translate(288.82 221.731)"><rect width="30.733" height="6.124" transform="translate(0 0)"/><path d="M319.617,245.125l8.618,32.207,5.954-1.588-8.676-32.207Z" transform="translate(-310.488 -237.073)"/><g transform="translate(28.292 10.887)"><path d="M401.5,269.006a3.92,3.92,0,0,1,3.912-3.912h2.948l-5.047,18.541,5.954,1.645,7.128-26.307-10.983,0a9.963,9.963,0,0,0-9.072,5.727l1.7-6.237H386.022v6.123h3.97l-5.727,21.15,5.954,1.587,4.946-18.315Z" transform="translate(-384.264 -258.46)"/></g><rect width="17.204" height="6.124" transform="translate(47.253 39.1) rotate(-15.519)"/><rect width="6.124" height="24.892" transform="translate(70.844 0.18)"/><g transform="translate(69.483 30.969)"><path d="M527.651,326.208a4.423,4.423,0,1,0,4.423,4.423,4.428,4.428,0,0,0-4.423-4.423" transform="translate(-523.228 -326.208)"/></g></g></g></svg>