<svg xmlns="http://www.w3.org/2000/svg" xmlns:xlink="http://www.w3.org/1999/xlink" width="223.135" height="236.468" viewBox="0 0 223.135 236.468"><defs><style>.a{fill:none;}.b{fill:#6145D1;}.c{clip-path:url(#a);}.d{fill:#6145D1;}.e{fill:#fff;}.f{fill:#f25763;}.g{clip-path:url(#b);}.h{clip-path:url(#c);}</style><clipPath id="a"><path class="a" d="M211.01,82.849c23.048,5.206,10.484,41.409,10.484,41.409s-13.036-1.752-34.326-11.987c0,0,1.722-29.906,19.706-29.908a18.728,18.728,0,0,1,4.135.486" transform="translate(-187.169 -82.363)"/></clipPath><clipPath id="b"><path class="a" d="M196.388,124.1c9.508.245,17,8.772,16.734,19.044s-8.189,18.4-17.7,18.153-17-8.773-16.736-19.045c.262-10.12,7.957-18.158,17.276-18.158.14,0,.281,0,.421.006" transform="translate(-178.683 -124.098)"/></clipPath><clipPath id="c"><path class="a" d="M235.379,124.1c9.508.245,17,8.772,16.736,19.044s-8.189,18.4-17.7,18.153-17-8.773-16.734-19.045c.261-10.12,7.955-18.158,17.276-18.158.139,0,.28,0,.42.006" transform="translate(-217.676 -124.098)"/></clipPath></defs><g transform="translate(0)"><g transform="translate(0 69.423)"><path d="M179.808,223.99a2.231,2.231,0,0,0,1-4.225l-33.142-16.6L112.1,185.865a2.23,2.23,0,0,0-1.952,4.011l35.541,17.283,33.118,16.593a2.208,2.208,0,0,0,1,.237" transform="translate(29.369 -132.205)"/><path d="M289.61,188.685A2.23,2.23,0,0,0,291,184.707l-19.35-15.322,6.544-26.253a2.229,2.229,0,1,0-4.326-1.077L266.972,169.7a2.226,2.226,0,0,0,.779,2.287L288.227,188.2a2.224,2.224,0,0,0,1.383.481" transform="translate(-266.906 -140.362)"/><path class="b" d="M284.814,277.924c0,3.169-30.895,5.737-69.005,5.737s-69.005-2.568-69.005-5.737,30.895-5.737,69.005-5.737,69.005,2.568,69.005,5.737" transform="translate(-118.141 -116.615)"/><path d="M176.192,225.789l13.122,59.48s14.91,2.937,15.748,0-6.8-4.11-10.5-4.367l-14-56.864Z" transform="translate(-73.134 -125.288)"/><path d="M230.984,232.193l.875,49.861s-15.089,2.941-14.872,0,4.922-4.077,8.748-4.37v-45.5Z" transform="translate(-148.008 -123.819)"/></g><g transform="translate(81.293 0.976)"><g class="c"><path class="d" d="M186.056,115.1s8.416-39.535,30.13-35.973,12.638,46.688,12.638,46.688A116.408,116.408,0,0,1,186.056,115.1" transform="translate(-191.65 -82.986)"/><path class="e" d="M185.1,117.137l19.4,6.68s5.312-27.422-2.8-35.412c-17.69,1.106-16.6,28.733-16.6,28.733" transform="translate(-166.01 -81.275)"/></g></g><g transform="translate(17.475)"><path class="f" d="M248.8,119.839s-20.925-3.065-22.7-24.283c-1.78-21.241-30.615-16.777-27.249,2.877,3.35,19.557,22.872,19.828,22.872,19.828Z" transform="translate(-160.696 -81.536)"/><path class="d" d="M171.544,165.54l2.35,1.135a10.079,10.079,0,0,0,13.46-4.691l20.31-42.04a10.078,10.078,0,0,0-4.69-13.46l-2.35-1.135a10.08,10.08,0,0,0-13.46,4.691l-20.311,42.04a10.079,10.079,0,0,0,4.691,13.459" transform="translate(-81.946 -77.428)"/><path class="d" d="M258.385,165.54l-2.35,1.135a10.079,10.079,0,0,1-13.46-4.691l-20.31-42.04a10.078,10.078,0,0,1,4.69-13.46l2.35-1.135a10.08,10.08,0,0,1,13.46,4.691l20.311,42.04a10.08,10.08,0,0,1-4.691,13.459" transform="translate(-202.75 -77.428)"/><path class="d" d="M150.163,184.5c0,40.847,32.512,73.959,72.616,73.959S295.4,225.35,295.4,184.5s-32.512-73.959-72.618-73.959-72.616,33.112-72.616,73.959" transform="translate(-150.163 -76.311)"/><path d="M214.074,163.864a15.436,15.436,0,0,0,13.139-6.639,1.116,1.116,0,1,0-1.81-1.3c-4.022,5.589-10.277,7.1-18.59,4.485a1.115,1.115,0,0,0-.669,2.127,26.552,26.552,0,0,0,7.931,1.332" transform="translate(-147.334 -68.22)"/><path d="M209.087,160.033a1.115,1.115,0,0,0,.035-2.23,6.006,6.006,0,0,1-5.571-5.038,1.116,1.116,0,0,0-2.213.293,8.32,8.32,0,0,0,7.713,6.975h.035" transform="translate(-125.35 -68.879)"/></g><g transform="translate(94.606 50.229)"><g class="g"><path class="e" d="M178.689,142.257c-.266,10.272,7.227,18.8,16.734,19.044s17.432-7.881,17.7-18.153-7.227-18.8-16.736-19.045-17.432,7.882-17.7,18.154" transform="translate(-178.682 -124.098)"/><path d="M191.411,141.953c-.215,8.953,6.343,16.4,14.65,16.628s15.212-6.838,15.428-15.788-6.344-16.4-14.65-16.626S191.626,133,191.411,141.953" transform="translate(-202.063 -123.726)"/></g></g><g transform="translate(48.588 50.229)"><g class="h"><path class="e" d="M217.683,142.257c-.266,10.272,7.227,18.8,16.734,19.044s17.432-7.881,17.7-18.153-7.227-18.8-16.736-19.045-17.432,7.882-17.7,18.154" transform="translate(-217.677 -124.098)"/><path d="M230.406,141.953c-.215,8.953,6.343,16.4,14.649,16.628s15.213-6.838,15.428-15.788-6.343-16.4-14.649-16.626S230.62,133,230.406,141.953" transform="translate(-241.059 -123.726)"/></g></g><path class="d" d="M245.682,121.807H191.533a17.369,17.369,0,0,0-17.369,17.369v2.249h88.887v-2.249a17.369,17.369,0,0,0-17.369-17.369" transform="translate(-128.667 -74.282)"/><path d="M180.743,135.363H210.17a1.673,1.673,0,1,0,0-3.346H180.743a1.673,1.673,0,0,0,0,3.346" transform="translate(-83.25 -72.443)"/><path d="M218.916,135.363h29.427a1.673,1.673,0,0,0,0-3.346H218.916a1.673,1.673,0,0,0,0,3.346" transform="translate(-166.471 -72.443)"/><path d="M112.022,228.08a2.232,2.232,0,0,0,1.927-1.1L118.026,220a2.231,2.231,0,1,0-3.851-2.253l-4.076,6.971a2.231,2.231,0,0,0,1.924,3.357" transform="translate(92.02 -57.197)"/><path d="M111.207,230.071a2.232,2.232,0,0,0,1.984-3.248l-4.274-8.346a2.23,2.23,0,1,0-3.971,2.032l4.274,8.346a2.231,2.231,0,0,0,1.987,1.216" transform="translate(102.925 -57.086)"/><path d="M112.254,222.314a2.231,2.231,0,0,0,.539-4.395l-11.061-2.766a2.23,2.23,0,0,0-1.081,4.328l11.06,2.766a2.262,2.262,0,0,0,.543.067" transform="translate(108.651 -57.478)"/><path d="M103.629,220.211a2.205,2.205,0,0,0,1.152-.322l9.473-5.73a2.23,2.23,0,0,0-2.307-3.817l-9.473,5.73a2.23,2.23,0,0,0,1.155,4.139" transform="translate(104.93 -58.391)"/><path d="M279.709,148.855a2.231,2.231,0,0,0,.827-4.3l-7.5-2.992a2.229,2.229,0,1,0-1.652,4.141l7.5,2.993a2.186,2.186,0,0,0,.825.161" transform="translate(-260.632 -70.752)"/><path d="M271.724,145.149a2.225,2.225,0,0,0,1.3-.418l7.617-5.47a2.231,2.231,0,0,0-2.6-3.624l-7.618,5.47a2.23,2.23,0,0,0,1.3,4.042" transform="translate(-259.684 -71.866)"/><path d="M279.407,146.382a2.23,2.23,0,0,0,2.217-2.017l1.089-11.351a2.231,2.231,0,1,0-4.441-.426l-1.089,11.351a2.231,2.231,0,0,0,2.007,2.433c.072.007.145.009.216.009" transform="translate(-269.905 -72.703)"/><path d="M287.451,147.057a2.23,2.23,0,0,0,1.715-3.656l-7.076-8.514a2.23,2.23,0,0,0-3.431,2.851l7.076,8.515a2.227,2.227,0,0,0,1.716.8" transform="translate(-278.007 -72.07)"/></g></svg>