<svg width="201" height="216" viewBox="0 0 201 216" fill="none" xmlns="http://www.w3.org/2000/svg">
<rect width="183" height="200" rx="4" fill="#F2F2F2"/>
<g clip-path="url(#clip0_395_969)">
<path d="M58.9401 134.688C63.8485 151.977 64.0277 156.224 59.1913 160.799C57.4675 162.557 54.8949 163.204 51.9679 162.818L48.915 200.67C62.9325 201.782 75.7123 197.274 85.658 187.914C107.402 166.458 100.118 140.902 95.1523 124.096C89.6729 105.485 89.201 99.7118 97.9113 92.1711C101.015 89.3596 104.78 89.1129 107.501 89.2213C112.172 89.5969 116.801 92.1935 119.763 96.065C125.266 103.253 124.116 113.781 116.923 119.286L139.793 149.146C163.316 131.155 167.862 96.9896 149.651 73.2113C140.337 61.0466 126.249 52.9642 111.043 51.4409C96.5365 50.2619 83.2683 54.7076 72.8337 64.0014C45.2601 88.1558 53.6855 116.349 58.9496 134.687L58.9401 134.688Z" fill="#ACD7E4"/>
<path d="M51.2937 67.5297C51.4678 67.5525 51.6438 67.5417 51.8156 67.4836L71.5205 61.0977C72.1342 60.9001 72.4727 60.2394 72.2703 59.6266C72.0727 59.0133 71.4163 58.6747 70.7983 58.8774L52.8646 64.6911L55.0995 48.2088C55.1866 47.5704 54.7426 46.9836 54.1038 46.8967C54.1038 46.8967 54.1038 46.8967 54.099 46.8972C53.4602 46.8103 52.8687 47.2591 52.7864 47.8971L50.3031 66.2219C50.2473 66.6187 50.402 67.016 50.7118 67.2753C50.8822 67.4179 51.0859 67.505 51.2989 67.534" fill="black"/>
<path d="M54.8198 49.9679C54.8974 49.9802 54.9742 49.983 55.0501 49.9763L59.2741 49.7272C59.9163 49.6896 60.4124 49.1345 60.37 48.4931C60.3325 47.8514 59.777 47.3557 59.1348 47.3933L54.9108 47.6424C54.2638 47.6804 53.7725 48.2351 53.8149 48.8765C53.8505 49.442 54.2771 49.8869 54.8194 49.9632" fill="black"/>
<path d="M54.6339 49C55.0986 49.064 55.5765 48.845 55.8157 48.4129L58.2101 44.1253C58.5238 43.5625 58.3221 42.8492 57.7589 42.5358C57.1956 42.2224 56.4819 42.4241 56.1682 42.987L53.769 47.2749C53.4554 47.8378 53.6571 48.5511 54.2203 48.8645C54.3512 48.9389 54.4891 48.9841 54.6292 49.0004" fill="black"/>
<path d="M53.5194 49.7531C53.6987 49.7802 53.8885 49.7635 54.0737 49.6945C54.6809 49.4784 54.9996 48.8099 54.7787 48.2035L52.7707 42.58C52.5545 41.9731 51.8857 41.6547 51.2788 41.8756C50.6715 42.0917 50.3528 42.7602 50.569 43.367L52.577 48.9906C52.729 49.412 53.0982 49.6947 53.5146 49.7535" fill="black"/>
<path d="M53.7855 50.3844C54.2795 50.4554 54.7826 50.1959 55.0037 49.7224C55.2773 49.1392 55.0247 48.4447 54.4411 48.1714L49.1887 45.7111C48.6003 45.4382 47.9102 45.6903 47.6318 46.274C47.3582 46.8573 47.6108 47.5517 48.1948 47.8298L53.4473 50.29C53.5571 50.3424 53.67 50.3755 53.7812 50.3895" fill="black"/>
<path d="M84.5265 74.4648C92.3194 73.7762 98.5036 71.7108 98.3394 69.8516C98.1751 67.9924 91.7245 67.0435 83.9316 67.7321C76.1387 68.4207 69.9545 70.4862 70.1188 72.3454C70.2831 74.2046 76.7336 75.1535 84.5265 74.4648Z" fill="#94B4BF"/>
<path d="M99.7312 51.5661C98.8991 42.1497 90.5496 35.1609 81.127 35.9935C71.7043 36.8262 64.7094 45.1662 65.542 54.5873C66.3741 64.0037 74.7235 70.9925 84.1462 70.1598C93.5689 69.3272 100.563 60.9824 99.7312 51.5661Z" fill="#7D59ED"/>
<path d="M114.548 37.2164C114.456 37.3631 114.329 37.4938 114.18 37.5882L96.6494 48.6177C96.1013 48.9623 95.3838 48.7964 95.0393 48.2534C94.6949 47.7105 94.8559 46.989 95.404 46.6443L111.362 36.6043L97.2643 27.763C96.7175 27.4195 96.5538 26.7028 96.8928 26.1568C97.2366 25.6104 97.9585 25.4462 98.5053 25.7897L114.173 35.6201C114.512 35.8338 114.722 36.2071 114.719 36.6087C114.72 36.8285 114.657 37.0443 114.544 37.2263" fill="black"/>
<path d="M98.7941 28.679C98.7521 28.7448 98.7049 28.8063 98.6526 28.8635L95.755 31.9484C95.3135 32.4174 94.5743 32.4397 94.105 31.9986C93.6357 31.5575 93.613 30.814 94.0545 30.345L96.9521 27.2601C97.3936 26.791 98.1328 26.7687 98.6021 27.2099C99.0142 27.5987 99.0829 28.2138 98.7941 28.679Z" fill="black"/>
<path d="M98.1716 27.9123C97.9247 28.3116 97.4472 28.5354 96.961 28.4445L92.1328 27.538C91.4957 27.4175 91.0786 26.8093 91.1993 26.1727C91.3199 25.536 91.9286 25.1191 92.5656 25.2396L97.3939 26.1461C98.0309 26.2666 98.4433 26.8752 98.3274 27.5114C98.302 27.657 98.2469 27.7909 98.1716 27.9123Z" fill="black"/>
<path d="M99.4632 27.5401C99.3671 27.6968 99.2305 27.8283 99.0624 27.9291C98.5079 28.2553 97.7887 28.0704 97.4624 27.5162L94.4256 22.3707C94.0993 21.8166 94.2797 21.0982 94.839 20.7716C95.3935 20.4455 96.1127 20.6304 96.439 21.1845L99.4711 26.3305C99.7012 26.7163 99.6802 27.1817 99.4584 27.5406" fill="black"/>
<path d="M99.7799 28.1476C99.5162 28.5723 99.0003 28.7947 98.491 28.6581C97.8644 28.4937 97.4926 27.8576 97.6572 27.2314L99.1314 21.6203C99.296 20.9941 99.9326 20.6225 100.559 20.7869C101.186 20.9514 101.558 21.5875 101.393 22.2137L99.9231 27.8196C99.8904 27.9372 99.847 28.0414 99.7843 28.1425" fill="black"/>
<path d="M144.834 192.552C157.896 191.398 168.347 188.891 168.175 186.953C168.004 185.016 157.276 184.38 144.214 185.535C131.151 186.689 120.701 189.196 120.872 191.133C121.043 193.071 131.771 193.706 144.834 192.552Z" fill="#EDEDED"/>
</g>
<defs>
<clipPath id="clip0_395_969">
<rect width="120" height="176" fill="white" transform="translate(33.4867 26.0784) rotate(-5.05)"/>
</clipPath>
</defs>
</svg>
