<svg width="468" height="119" viewBox="0 0 468 119" fill="none" xmlns="http://www.w3.org/2000/svg">
<g clip-path="url(#clip0_395_1867)">
<rect width="467.5" height="119.069" rx="4" transform="matrix(-1 0 0 1 468 -0.0690918)" fill="#F2F2F2"/>
<path d="M317.583 11.7355L330.275 -73.4901" stroke="black" stroke-width="1.66188" stroke-linecap="round" stroke-linejoin="round"/>
<path d="M135.313 11.6772L121.541 -73.4047" stroke="black" stroke-width="1.66188" stroke-linecap="round" stroke-linejoin="round"/>
<path d="M312.155 -46.5742L316.532 -44.5483C325.931 -40.197 329.869 -29.3697 325.327 -20.3648L287.276 55.0779C282.734 64.0828 271.432 67.8554 262.033 63.5042L257.656 61.4783C248.257 57.127 244.319 46.2997 248.861 37.2947L286.912 -38.1479C291.454 -47.1529 302.756 -50.9254 312.155 -46.5742Z" fill="#7E58EC"/>
<path d="M193.97 61.4829L189.594 63.5089C180.194 67.8601 168.893 64.0875 164.351 55.0825L126.299 -20.3601C121.757 -29.3651 125.695 -40.1924 135.095 -44.5436L139.471 -46.5696C148.871 -50.9208 160.173 -47.1482 164.714 -38.1432L202.766 37.2994C207.308 46.3044 203.37 57.1317 193.97 61.4829Z" fill="#7E58EC"/>
<path d="M225.803 230.332C150.639 230.332 89.7075 170.877 89.7075 97.5356C89.7075 24.194 150.639 -35.2611 225.803 -35.2611C300.966 -35.2611 361.898 24.194 361.898 97.5356C361.898 170.877 300.966 230.332 225.803 230.332Z" fill="#7E58EC"/>
<mask id="mask0_395_1867" style="mask-type:luminance" maskUnits="userSpaceOnUse" x="234" y="-7" width="65" height="68">
<path d="M265.674 60.2789C247.85 59.8377 233.804 44.5312 234.301 26.0908C234.798 7.65044 249.651 -6.9408 267.475 -6.49962C285.298 -6.05845 299.344 9.24808 298.847 27.6884C298.35 46.1288 283.497 60.72 265.674 60.2789Z" fill="white"/>
</mask>
<g mask="url(#mask0_395_1867)">
<path d="M265.674 60.2789C247.85 59.8377 233.804 44.5312 234.301 26.0908C234.798 7.65044 249.651 -6.9408 267.475 -6.49962C285.298 -6.05845 299.344 9.24808 298.847 27.6884C298.35 46.1288 283.497 60.72 265.674 60.2789Z" fill="white"/>
<path d="M266.547 49.5911C254.434 49.5911 244.615 39.4503 244.615 26.9409C244.615 14.4316 254.434 4.29077 266.547 4.29077C278.66 4.29077 288.48 14.4316 288.48 26.9409C288.48 39.4503 278.66 49.5911 266.547 49.5911Z" fill="black"/>
</g>
<mask id="mask1_395_1867" style="mask-type:luminance" maskUnits="userSpaceOnUse" x="148" y="-7" width="65" height="68">
<path d="M179.443 60.2731C161.619 59.8319 147.573 44.5254 148.07 26.0851C148.568 7.6447 163.42 -6.94654 181.244 -6.50536C199.067 -6.06419 213.113 9.24234 212.616 27.6827C212.119 46.1231 197.266 60.7143 179.443 60.2731Z" fill="white"/>
</mask>
<g mask="url(#mask1_395_1867)">
<path d="M179.443 60.2731C161.619 59.8319 147.573 44.5254 148.07 26.0851C148.568 7.6447 163.42 -6.94654 181.244 -6.50536C199.067 -6.06419 213.113 9.24234 212.616 27.6827C212.119 46.1231 197.266 60.7143 179.443 60.2731Z" fill="white"/>
<path d="M180.318 49.5338C168.205 49.5338 158.385 39.3929 158.385 26.8836C158.385 14.3742 168.205 4.2334 180.318 4.2334C192.431 4.2334 202.25 14.3742 202.25 26.8836C202.25 39.3929 192.431 49.5338 180.318 49.5338Z" fill="black"/>
</g>
<mask id="mask2_395_1867" style="mask-type:luminance" maskUnits="userSpaceOnUse" x="191" y="59" width="64" height="39">
<path d="M249.325 61.9789C238.284 54.7642 236.754 68.5325 222.232 72.5279C207.681 76.5233 191.719 63.2437 191.659 76.1497C191.569 93.1948 207.951 100.841 229.163 96.9027C249.055 93.1948 261.957 70.1997 249.355 61.9789H249.325Z" fill="white"/>
</mask>
<g mask="url(#mask2_395_1867)">
<path d="M283.007 94.2439L184.081 122.137L165.791 62.6041L264.717 34.7108L283.007 94.2439Z" fill="black"/>
<path d="M199.997 105.079C197.11 93.5968 208.418 81.1398 225.253 77.2559C242.088 73.3719 258.075 79.5319 260.961 91.0145C263.848 102.497 252.54 114.954 235.705 118.838C218.87 122.722 202.883 116.562 199.997 105.079Z" fill="#F25763"/>
<path d="M206.129 83.97L200.983 85.3373C197.518 86.2579 193.93 84.3131 192.969 80.9936L185.272 54.403C184.311 51.0835 186.341 47.6462 189.806 46.7256L194.952 45.3583C198.417 44.4377 202.005 46.3824 202.966 49.702L210.663 76.2925C211.624 79.6121 209.594 83.0494 206.129 83.97Z" fill="white"/>
<path d="M227.126 80.3473L221.979 81.7146C218.514 82.6352 214.926 80.6904 213.965 77.3709L206.268 50.7804C205.307 47.4608 207.337 44.0235 210.802 43.1029L215.948 41.7356C219.413 40.815 223.001 42.7598 223.962 46.0793L231.66 72.6698C232.62 75.9894 230.591 79.4267 227.126 80.3473Z" fill="white"/>
<path d="M246.807 73.1742L241.66 74.5415C238.195 75.4621 234.607 73.5174 233.647 70.1978L225.949 43.6073C224.988 40.2877 227.018 36.8504 230.483 35.9298L235.63 34.5625C239.095 33.6419 242.683 35.5867 243.643 38.9062L251.341 65.4968C252.302 68.8163 250.272 72.2536 246.807 73.1742Z" fill="white"/>
</g>
</g>
<defs>
<clipPath id="clip0_395_1867">
<rect width="468" height="119" rx="4" fill="white"/>
</clipPath>
</defs>
</svg>
