<svg width="183" height="200" viewBox="0 0 183 200" fill="none" xmlns="http://www.w3.org/2000/svg">
<rect width="183" height="200" rx="4" fill="#F2F2F2"/>
<path d="M28.79 126.957L49.67 116.497L72.07 105.607" stroke="black" stroke-width="2.81" stroke-linecap="round" stroke-linejoin="round"/>
<path d="M154.84 71.9471L159.18 89.3671L146.28 99.5771" stroke="black" stroke-width="2.81" stroke-linecap="round" stroke-linejoin="round"/>
<path d="M99.0499 175.777C123.063 175.777 142.53 174.161 142.53 172.167C142.53 170.173 123.063 168.557 99.0499 168.557C75.0366 168.557 55.5699 170.173 55.5699 172.167C55.5699 174.161 75.0366 175.777 99.0499 175.777Z" fill="#E5E5E5"/>
<path d="M95.66 133.857L87.39 171.337C87.39 171.337 78 173.187 77.47 171.337C76.94 169.487 81.75 168.747 84.08 168.587L92.9 132.757L95.66 133.857Z" fill="black"/>
<path d="M108.31 138.817L107.76 170.237C107.76 170.237 117.27 172.087 117.13 170.237C116.99 168.387 114.03 167.667 111.62 167.487V138.827H108.31V138.817Z" fill="black"/>
<mask id="mask0_395_1005" style="mask-type:luminance" maskUnits="userSpaceOnUse" x="85" y="27" width="25" height="27">
<path d="M109.37 46.2571C109.37 46.2571 108.12 24.6071 94.3499 27.7171C79.8299 30.9971 87.7399 53.8071 87.7399 53.8071C87.7399 53.8071 95.95 52.7071 109.37 46.2571Z" fill="white"/>
</mask>
<g mask="url(#mask0_395_1005)">
<path d="M112.89 47.6471C112.89 47.6471 107.59 22.7371 93.9099 24.9771C80.2299 27.2171 85.9499 54.3971 85.9499 54.3971C85.9499 54.3971 99.4799 54.0971 112.9 47.6471H112.89Z" fill="#7E58EC"/>
<path d="M97.3399 50.0071L85.1199 54.2171C85.1199 54.2171 81.7699 36.9371 86.8799 31.9071C98.0299 32.6071 97.3399 50.0071 97.3399 50.0071Z" fill="white"/>
</g>
<path d="M94.0699 50.9271C94.0699 50.9271 107.25 48.9971 108.37 35.6271C109.49 22.2471 127.66 25.0571 125.54 37.4371C123.43 49.7571 111.13 49.9271 111.13 49.9271L94.0699 50.9171V50.9271Z" fill="#F25763"/>
<path d="M74.7999 44.381L73.3232 45.0946C70.1655 46.6204 68.8426 50.4171 70.3684 53.5748L83.1683 80.0644C84.6941 83.2221 88.4908 84.545 91.6485 83.0192L93.1252 82.3057C96.2829 80.7799 97.6058 76.9831 96.08 73.8254L83.2801 47.3358C81.7543 44.1781 77.9576 42.8552 74.7999 44.381Z" fill="#7E58EC"/>
<path d="M114.531 82.3139L116.008 83.0275C119.165 84.5533 122.962 83.2304 124.488 80.0727L137.288 53.5831C138.814 50.4254 137.491 46.6286 134.333 45.1028L132.856 44.3893C129.699 42.8635 125.902 44.1864 124.376 47.3441L111.576 73.8337C110.05 76.9914 111.373 80.7881 114.531 82.3139Z" fill="#7E58EC"/>
<path d="M103.83 141.567C129.097 141.567 149.58 120.704 149.58 94.9671C149.58 69.2307 129.097 48.3671 103.83 48.3671C78.5629 48.3671 58.08 69.2307 58.08 94.9671C58.08 120.704 78.5629 141.567 103.83 141.567Z" fill="#7E58EC"/>
<path d="M112.31 85.5471C106.91 87.2471 102.59 86.3171 99.8199 82.4671" stroke="black" stroke-width="1.41" stroke-linecap="round" stroke-linejoin="round"/>
<path d="M101 79.7371C100.73 81.7671 98.8599 83.4571 96.8199 83.5171" stroke="black" stroke-width="1.41" stroke-linecap="round" stroke-linejoin="round"/>
<mask id="mask1_395_1005" style="mask-type:luminance" maskUnits="userSpaceOnUse" x="79" y="58" width="22" height="24">
<path d="M90.4301 81.8868C96.4204 81.732 101.141 76.3611 100.974 69.8905C100.807 63.4199 95.8149 58.2998 89.8247 58.4546C83.8344 58.6094 79.1138 63.9803 79.281 70.4509C79.4482 76.9216 84.4398 82.0416 90.4301 81.8868Z" fill="white"/>
</mask>
<g mask="url(#mask1_395_1005)">
<path d="M90.4301 81.8868C96.4204 81.732 101.141 76.3611 100.974 69.8905C100.807 63.4199 95.8149 58.2998 89.8247 58.4546C83.8344 58.6094 79.1138 63.9803 79.281 70.4509C79.4482 76.9216 84.4398 82.0416 90.4301 81.8868Z" fill="white"/>
<path d="M98.22 80.3971C103.456 80.3971 107.7 75.826 107.7 70.1871C107.7 64.5483 103.456 59.9771 98.22 59.9771C92.9843 59.9771 88.74 64.5483 88.74 70.1871C88.74 75.826 92.9843 80.3971 98.22 80.3971Z" fill="black"/>
</g>
<mask id="mask2_395_1005" style="mask-type:luminance" maskUnits="userSpaceOnUse" x="108" y="58" width="22" height="24">
<path d="M119.42 81.888C125.411 81.7333 130.131 76.3623 129.964 69.8917C129.797 63.4211 124.805 58.3011 118.815 58.4559C112.825 58.6106 108.104 63.9816 108.271 70.4522C108.439 76.9228 113.43 82.0428 119.42 81.888Z" fill="white"/>
</mask>
<g mask="url(#mask2_395_1005)">
<path d="M119.42 81.888C125.411 81.7333 130.131 76.3623 129.964 69.8917C129.797 63.4211 124.805 58.3011 118.815 58.4559C112.825 58.6106 108.104 63.9816 108.271 70.4522C108.439 76.9228 113.43 82.0428 119.42 81.888Z" fill="white"/>
<path d="M127.21 80.3971C132.446 80.3971 136.69 75.826 136.69 70.1871C136.69 64.5483 132.446 59.9771 127.21 59.9771C121.974 59.9771 117.73 64.5483 117.73 70.1871C117.73 75.826 121.974 80.3971 127.21 80.3971Z" fill="black"/>
</g>
<path d="M86.8599 56.7371H120.98C127.02 56.7371 131.92 61.6371 131.92 67.6771V69.0971H75.9199V67.6771C75.9199 61.6371 80.8199 56.7371 86.8599 56.7371Z" fill="#7E58EC"/>
<path d="M80.6199 65.3871H99.1599" stroke="black" stroke-width="2.11" stroke-linecap="round" stroke-linejoin="round"/>
<path d="M109 65.3871H127.55" stroke="black" stroke-width="2.11" stroke-linecap="round" stroke-linejoin="round"/>
<path d="M29.4601 128.667L32.0301 133.057" stroke="black" stroke-width="2.81" stroke-linecap="round" stroke-linejoin="round"/>
<path d="M25.67 134.377L28.37 129.127" stroke="black" stroke-width="2.81" stroke-linecap="round" stroke-linejoin="round"/>
<path d="M21.41 129.247L28.37 127.507" stroke="black" stroke-width="2.81" stroke-linecap="round" stroke-linejoin="round"/>
<path d="M23.2201 123.737L29.1801 127.347" stroke="black" stroke-width="2.81" stroke-linecap="round" stroke-linejoin="round"/>
<path d="M153.29 72.7171L148.57 74.5971" stroke="black" stroke-width="2.81" stroke-linecap="round" stroke-linejoin="round"/>
<path d="M148.21 68.1171L153 71.5671" stroke="black" stroke-width="2.81" stroke-linecap="round" stroke-linejoin="round"/>
<path d="M153.92 64.6571L154.6 71.8171" stroke="black" stroke-width="2.81" stroke-linecap="round" stroke-linejoin="round"/>
<path d="M159.1 67.2771L154.64 72.6371" stroke="black" stroke-width="2.81" stroke-linecap="round" stroke-linejoin="round"/>
</svg>
