<svg width="183" height="201" viewBox="0 0 183 201" fill="none" xmlns="http://www.w3.org/2000/svg">
<rect y="0.0563354" width="183" height="200" rx="4" fill="#F2F2F2"/>
<g clip-path="url(#clip0_395_1061)">
<path d="M81.5362 186.547C103.17 186.547 120.708 185.088 120.708 183.288C120.708 181.487 103.17 180.028 81.5362 180.028C59.9023 180.028 42.3646 181.487 42.3646 183.288C42.3646 185.088 59.9023 186.547 81.5362 186.547Z" fill="#E5E5E5"/>
<path d="M86.5009 157.872L93.4682 145.183" stroke="black" stroke-width="2.81" stroke-linecap="round" stroke-linejoin="round"/>
<path d="M69.9238 160.576L86.0024 158.051" stroke="black" stroke-width="2.81" stroke-linecap="round" stroke-linejoin="round"/>
<path d="M68.4664 159.455C68.2595 160.387 67.0936 168.093 68.7579 167.905C70.4222 167.716 70.7795 166.002 71.0615 162.846C71.3436 159.69 71.6069 159.106 68.4664 159.455Z" fill="black"/>
<path d="M77.9537 153.68L89.2746 144.693" stroke="black" stroke-width="2.81" stroke-linecap="round" stroke-linejoin="round"/>
<path d="M61.6119 149.733L77.4179 153.652" stroke="black" stroke-width="2.81" stroke-linecap="round" stroke-linejoin="round"/>
<path d="M60.7093 148.132C60.1545 148.914 56.102 155.555 57.7004 156.035C59.2989 156.516 60.2956 155.074 61.7812 152.267C63.2668 149.469 63.7276 149.036 60.6999 148.132H60.7093Z" fill="black"/>
<path d="M139.607 132.231L116.204 130.507" stroke="black" stroke-width="2.81" stroke-linecap="round" stroke-linejoin="round"/>
<path d="M159.033 132.607L161.459 132.136" stroke="black" stroke-width="2.81" stroke-linecap="round" stroke-linejoin="round"/>
<path d="M167.674 133.681L159.861 133.286" stroke="black" stroke-width="2.81" stroke-linecap="round" stroke-linejoin="round"/>
<path d="M162.775 135.594L158.563 133.964" stroke="black" stroke-width="2.81" stroke-linecap="round" stroke-linejoin="round"/>
<path d="M159.663 135.038L158.102 133.38" stroke="black" stroke-width="2.81" stroke-linecap="round" stroke-linejoin="round"/>
<path d="M139.993 132.306L157.895 133.276" stroke="black" stroke-width="2.81" stroke-linecap="round" stroke-linejoin="round"/>
<path d="M94.3991 145.767C117.165 145.767 135.621 127.729 135.621 105.478C135.621 83.2262 117.165 65.1879 94.3991 65.1879C71.6332 65.1879 53.1777 83.2262 53.1777 105.478C53.1777 127.729 71.6332 145.767 94.3991 145.767Z" fill="#7E58EC"/>
<path d="M59.7972 127.379L13 54.0533L49.5765 71.9609L29.7744 22.9199L74.597 52.678L65.7961 13.5563L125.879 79.4687L59.7972 127.379Z" fill="#7E58EC"/>
<path d="M101.714 123.253C96.8532 124.789 92.9605 123.95 90.4594 120.465" stroke="black" stroke-width="1.35" stroke-linecap="round" stroke-linejoin="round"/>
<path d="M91.5218 118.006C91.2774 119.834 89.5943 121.369 87.7513 121.426" stroke="black" stroke-width="1.35" stroke-linecap="round" stroke-linejoin="round"/>
<mask id="mask0_395_1061" style="mask-type:luminance" maskUnits="userSpaceOnUse" x="71" y="97" width="21" height="23">
<path d="M81.9984 119.904C87.3973 119.765 91.6447 114.638 91.4852 108.454C91.3257 102.271 86.8198 97.371 81.4209 97.5108C76.022 97.6505 71.7747 102.777 71.9341 108.961C72.0936 115.144 76.5995 120.044 81.9984 119.904Z" fill="white"/>
</mask>
<g mask="url(#mask0_395_1061)">
<path d="M81.9984 119.904C87.3973 119.765 91.6447 114.638 91.4852 108.454C91.3257 102.271 86.8198 97.371 81.4209 97.5108C76.022 97.6505 71.7747 102.777 71.9341 108.961C72.0936 115.144 76.5995 120.044 81.9984 119.904Z" fill="white"/>
<path d="M89.1048 118.506C93.8197 118.453 97.5932 114.041 97.5331 108.652C97.473 103.262 93.6021 98.9358 88.8872 98.9886C84.1723 99.0413 80.3988 103.453 80.4589 108.843C80.519 114.232 84.3899 118.559 89.1048 118.506Z" fill="black"/>
</g>
<mask id="mask1_395_1061" style="mask-type:luminance" maskUnits="userSpaceOnUse" x="98" y="97" width="20" height="23">
<path d="M108.121 119.944C113.52 119.805 117.767 114.678 117.608 108.495C117.448 102.311 112.942 97.4111 107.543 97.5508C102.144 97.6905 97.897 102.817 98.0565 109.001C98.2159 115.184 102.722 120.084 108.121 119.944Z" fill="white"/>
</mask>
<g mask="url(#mask1_395_1061)">
<path d="M108.121 119.944C113.52 119.805 117.767 114.678 117.608 108.495C117.448 102.311 112.942 97.4111 107.543 97.5508C102.144 97.6905 97.897 102.817 98.0565 109.001C98.2159 115.184 102.722 120.084 108.121 119.944Z" fill="white"/>
<path d="M115.224 118.543C119.939 118.49 123.713 114.079 123.653 108.689C123.592 103.299 119.722 98.9732 115.007 99.0259C110.292 99.0787 106.518 103.491 106.578 108.88C106.638 114.27 110.509 118.596 115.224 118.543Z" fill="black"/>
</g>
<path d="M78.7811 97.2444H109.519C114.963 97.2444 119.382 101.672 119.382 107.126V108.407H68.9177V107.126C68.9177 101.672 73.337 97.2444 78.7811 97.2444Z" fill="#7E58EC"/>
<path d="M73.1583 105.054H89.8669" stroke="black" stroke-width="2.02" stroke-linecap="round" stroke-linejoin="round"/>
<path d="M98.7336 105.054H115.442" stroke="black" stroke-width="2.02" stroke-linecap="round" stroke-linejoin="round"/>
<path d="M57.3619 133.078L72.1524 134.152" stroke="black" stroke-width="2.81" stroke-linecap="round" stroke-linejoin="round"/>
<path d="M43.7186 142.687L45.665 146.841" stroke="black" stroke-width="2.81" stroke-linecap="round" stroke-linejoin="round"/>
<path d="M39.8541 147.51L42.7031 143.007" stroke="black" stroke-width="2.81" stroke-linecap="round" stroke-linejoin="round"/>
<path d="M36.4503 142.546L42.8441 141.547" stroke="black" stroke-width="2.81" stroke-linecap="round" stroke-linejoin="round"/>
<path d="M38.5189 137.741L43.587 141.472" stroke="black" stroke-width="2.81" stroke-linecap="round" stroke-linejoin="round"/>
<path d="M43.1544 142.15L56.8071 133.267" stroke="black" stroke-width="2.81" stroke-linecap="round" stroke-linejoin="round"/>
</g>
<defs>
<clipPath id="clip0_395_1061">
<rect width="156" height="173" fill="white" transform="translate(13 13.5563)"/>
</clipPath>
</defs>
</svg>
