<svg width="536" height="201" viewBox="0 0 536 201" fill="none" xmlns="http://www.w3.org/2000/svg">
<rect y="0.0461426" width="536" height="200" rx="4" fill="#F2F2F2"/>
<path d="M407.078 69.1207L403.259 67.8722" stroke="black" stroke-width="2.81" stroke-linecap="round" stroke-linejoin="round"/>
<path d="M406.32 63.7686L407.484 68.2777" stroke="black" stroke-width="2.81" stroke-linecap="round" stroke-linejoin="round"/>
<path d="M411.542 64.5638L408.329 69.24" stroke="black" stroke-width="2.81" stroke-linecap="round" stroke-linejoin="round"/>
<path d="M413.36 68.7628L407.939 69.7569" stroke="black" stroke-width="2.81" stroke-linecap="round" stroke-linejoin="round"/>
<path d="M404.742 93.1534L408.114 69.574" stroke="black" stroke-width="2.81" stroke-linecap="round" stroke-linejoin="round"/>
<path d="M351.539 69.4626L347.521 69.3751" stroke="black" stroke-width="2.81" stroke-linecap="round" stroke-linejoin="round"/>
<path d="M349.251 64.5559L351.682 68.5322" stroke="black" stroke-width="2.81" stroke-linecap="round" stroke-linejoin="round"/>
<path d="M354.472 63.8083L352.766 69.2082" stroke="black" stroke-width="2.81" stroke-linecap="round" stroke-linejoin="round"/>
<path d="M357.438 67.2916L352.543 69.8205" stroke="black" stroke-width="2.81" stroke-linecap="round" stroke-linejoin="round"/>
<path d="M356.314 93.1375L352.655 69.5978" stroke="black" stroke-width="2.81" stroke-linecap="round" stroke-linejoin="round"/>
<path d="M384.135 180.059C365.16 180.059 349.777 178.785 349.777 177.212C349.777 175.64 365.16 174.365 384.135 174.365C403.111 174.365 418.493 175.64 418.493 177.212C418.493 178.785 403.111 180.059 384.135 180.059Z" fill="#E5E5E5"/>
<path d="M386.814 147L393.351 176.544C393.351 176.544 400.772 177.999 401.195 176.544C401.609 175.089 397.807 174.5 395.965 174.373L388.998 146.126L386.822 146.992L386.814 147Z" fill="black"/>
<path d="M376.817 150.913L377.256 175.685C377.256 175.685 369.738 177.149 369.85 175.685C369.961 174.23 372.297 173.657 374.202 173.514V150.913H376.817Z" fill="black"/>
<mask id="mask0_395_786" style="mask-type:luminance" maskUnits="userSpaceOnUse" x="375" y="63" width="20" height="22">
<path d="M375.98 78.4888C375.98 78.4888 376.961 61.4226 387.85 63.872C399.329 66.4566 393.071 84.4453 393.071 84.4453C393.071 84.4453 386.582 83.5785 375.98 78.4888Z" fill="white"/>
</mask>
<g mask="url(#mask0_395_786)">
<path d="M373.198 79.5862C373.198 79.5862 377.391 59.9513 388.201 61.7168C399.01 63.4823 394.49 84.9065 394.49 84.9065C394.49 84.9065 383.792 84.6679 373.198 79.5862Z" fill="#7E58EC"/>
<path d="M385.482 81.4471L395.144 84.7634C395.144 84.7634 397.791 71.1406 393.749 67.1722C384.94 67.721 385.482 81.4471 385.482 81.4471Z" fill="white"/>
</g>
<path d="M388.073 82.1709C388.073 82.1709 377.654 80.6519 376.769 70.1068C375.884 59.5537 361.527 61.7725 363.201 71.5383C364.867 81.2563 374.593 81.3915 374.593 81.3915L388.081 82.1788L388.073 82.1709Z" fill="#F25763"/>
<path d="M403.3 77.0211L404.463 77.5816C406.96 78.7854 408.006 81.781 406.8 84.2724L396.69 105.145C395.483 107.637 392.48 108.68 389.983 107.477L388.82 106.916C386.322 105.712 385.276 102.717 386.483 100.225L396.593 79.3524C397.8 76.861 400.803 75.8172 403.3 77.0211Z" fill="#7E58EC"/>
<path d="M371.899 106.917L370.736 107.478C368.239 108.682 365.236 107.638 364.029 105.146L353.919 84.2736C352.712 81.7822 353.759 78.7866 356.256 77.5828L357.419 77.0223C359.916 75.8184 362.919 76.8622 364.126 79.3536L374.236 100.226C375.443 102.718 374.396 105.713 371.899 106.917Z" fill="#7E58EC"/>
<path d="M380.356 153.633C360.386 153.633 344.197 137.183 344.197 116.892C344.197 96.6004 360.386 80.1509 380.356 80.1509C400.327 80.1509 416.516 96.6004 416.516 116.892C416.516 137.183 400.327 153.633 380.356 153.633Z" fill="#7E58EC"/>
<mask id="mask1_395_786" style="mask-type:luminance" maskUnits="userSpaceOnUse" x="382" y="88" width="18" height="19">
<path d="M390.95 106.584C386.214 106.462 382.482 102.227 382.614 97.1251C382.747 92.0232 386.693 87.9863 391.428 88.1083C396.164 88.2304 399.896 92.4653 399.764 97.5672C399.632 102.669 395.686 106.706 390.95 106.584Z" fill="white"/>
</mask>
<g mask="url(#mask1_395_786)">
<path d="M390.95 106.584C386.214 106.462 382.482 102.227 382.614 97.1251C382.747 92.0232 386.693 87.9863 391.428 88.1083C396.164 88.2304 399.896 92.4653 399.764 97.5672C399.632 102.669 395.686 106.706 390.95 106.584Z" fill="white"/>
<path d="M391.182 103.627C387.964 103.627 385.355 100.821 385.355 97.3603C385.355 93.8993 387.964 91.0936 391.182 91.0936C394.4 91.0936 397.009 93.8993 397.009 97.3603C397.009 100.821 394.4 103.627 391.182 103.627Z" fill="black"/>
</g>
<mask id="mask2_395_786" style="mask-type:luminance" maskUnits="userSpaceOnUse" x="359" y="88" width="18" height="19">
<path d="M368.039 106.582C363.303 106.46 359.571 102.225 359.703 97.1234C359.835 92.0215 363.782 87.9845 368.517 88.1066C373.253 88.2286 376.985 92.4635 376.853 97.5654C376.721 102.667 372.775 106.704 368.039 106.582Z" fill="white"/>
</mask>
<g mask="url(#mask2_395_786)">
<path d="M368.039 106.582C363.303 106.46 359.571 102.225 359.703 97.1234C359.835 92.0215 363.782 87.9845 368.517 88.1066C373.253 88.2286 376.985 92.4635 376.853 97.5654C376.721 102.667 372.775 106.704 368.039 106.582Z" fill="white"/>
<path d="M368.271 103.611C365.053 103.611 362.444 100.805 362.444 97.3444C362.444 93.8834 365.053 91.0778 368.271 91.0778C371.49 91.0778 374.099 93.8834 374.099 97.3444C374.099 100.805 371.49 103.611 368.271 103.611Z" fill="black"/>
</g>
<path d="M396.364 82.5287L386.383 84.6759" stroke="black" stroke-width="2.09" stroke-linecap="round" stroke-linejoin="round"/>
<path d="M373.883 84.8827L363.998 82.314" stroke="black" stroke-width="2.09" stroke-linecap="round" stroke-linejoin="round"/>
<mask id="mask3_395_786" style="mask-type:luminance" maskUnits="userSpaceOnUse" x="371" y="106" width="17" height="11">
<path d="M386.606 107.054C383.673 105.058 383.266 108.868 379.408 109.973C375.542 111.078 371.301 107.404 371.285 110.975C371.261 115.691 375.613 117.806 381.249 116.717C386.535 115.691 389.963 109.329 386.614 107.054H386.606Z" fill="white"/>
</mask>
<g mask="url(#mask3_395_786)">
<path d="M395.555 115.981L369.271 123.698L364.412 107.227L390.696 99.5102L395.555 115.981Z" fill="black"/>
<path d="M373.5 118.979C372.733 115.802 375.738 112.356 380.211 111.281C384.683 110.207 388.931 111.911 389.698 115.088C390.465 118.265 387.461 121.711 382.988 122.786C378.515 123.86 374.267 122.156 373.5 118.979Z" fill="#F25763"/>
<path d="M375.13 113.139L373.762 113.517C372.842 113.772 371.888 113.233 371.633 112.315L369.588 104.958C369.332 104.04 369.872 103.089 370.792 102.834L372.16 102.456C373.08 102.201 374.034 102.739 374.289 103.658L376.334 111.014C376.59 111.933 376.05 112.884 375.13 113.139Z" fill="white"/>
<path d="M380.708 112.136L379.341 112.515C378.42 112.769 377.467 112.231 377.211 111.313L375.166 103.956C374.911 103.038 375.45 102.087 376.371 101.832L377.738 101.454C378.659 101.199 379.612 101.737 379.868 102.655L381.913 110.012C382.168 110.931 381.629 111.882 380.708 112.136Z" fill="white"/>
<path d="M385.937 110.152L384.57 110.53C383.649 110.785 382.696 110.247 382.441 109.328L380.396 101.972C380.14 101.053 380.68 100.102 381.6 99.8474L382.968 99.4691C383.888 99.2144 384.841 99.7524 385.097 100.671L387.142 108.028C387.397 108.946 386.858 109.897 385.937 110.152Z" fill="white"/>
</g>
<path d="M308.89 141.449L295.625 129.894" stroke="#CE3649" stroke-width="3.77" stroke-linecap="round" stroke-linejoin="round"/>
<path d="M122 123.516L142.647 106.721" stroke="#CE3649" stroke-width="3.77" stroke-linecap="round" stroke-linejoin="round"/>
<path d="M217.685 180.059C191.991 180.059 171.162 178.332 171.162 176.202C171.162 174.072 191.991 172.345 217.685 172.345C243.379 172.345 264.208 174.072 264.208 176.202C264.208 178.332 243.379 180.059 217.685 180.059Z" fill="#E5E5E5"/>
<path d="M209.538 136.805L200.689 176.807C200.689 176.807 190.637 178.779 190.071 176.807C189.505 174.834 194.655 174.039 197.15 173.872L206.588 135.628L209.538 136.805Z" fill="#CE3649"/>
<path d="M223.082 142.102L222.492 175.638C222.492 175.638 232.664 177.618 232.52 175.638C232.377 173.657 229.204 172.894 226.621 172.695V142.094H223.082V142.102Z" fill="#CE3649"/>
<path d="M141.81 47.8793H299.985C301.24 47.8793 302.257 48.8941 302.257 50.1458V150.754C302.257 152.006 301.24 153.02 299.985 153.02H141.81C140.555 153.02 139.538 152.006 139.538 150.754V50.1458C139.538 48.8941 140.555 47.8793 141.81 47.8793Z" fill="#F25763"/>
<mask id="mask4_395_786" style="mask-type:luminance" maskUnits="userSpaceOnUse" x="224" y="69" width="21" height="23">
<path d="M234.384 91.4069C228.706 91.2605 224.232 86.1838 224.39 80.0676C224.549 73.9515 229.28 69.112 234.957 69.2584C240.635 69.4047 245.109 74.4814 244.951 80.5976C244.792 86.7137 240.061 91.5532 234.384 91.4069Z" fill="white"/>
</mask>
<g mask="url(#mask4_395_786)">
<path d="M234.384 91.4069C228.706 91.2605 224.232 86.1838 224.39 80.0676C224.549 73.9515 229.28 69.112 234.957 69.2584C240.635 69.4047 245.109 74.4814 244.951 80.5976C244.792 86.7137 240.061 91.5532 234.384 91.4069Z" fill="white"/>
<path d="M239.639 90.2507C235.307 90.2507 231.795 86.4659 231.795 81.7972C231.795 77.1284 235.307 73.3436 239.639 73.3436C243.972 73.3436 247.484 77.1284 247.484 81.7972C247.484 86.4659 243.972 90.2507 239.639 90.2507Z" fill="black"/>
</g>
<mask id="mask5_395_786" style="mask-type:luminance" maskUnits="userSpaceOnUse" x="196" y="69" width="22" height="23">
<path d="M206.906 91.4067C201.229 91.2604 196.755 86.1837 196.913 80.0675C197.071 73.9514 201.802 69.1119 207.48 69.2582C213.158 69.4046 217.632 74.4813 217.473 80.5974C217.315 86.7136 212.584 91.5531 206.906 91.4067Z" fill="white"/>
</mask>
<g mask="url(#mask5_395_786)">
<path d="M206.907 91.4067C201.229 91.2604 196.755 86.1837 196.913 80.0675C197.072 73.9514 201.803 69.1119 207.48 69.2582C213.158 69.4046 217.632 74.4813 217.473 80.5974C217.315 86.7136 212.584 91.5531 206.907 91.4067Z" fill="white"/>
<path d="M212.169 90.2507C207.836 90.2507 204.325 86.4659 204.325 81.7971C204.325 77.1283 207.836 73.3435 212.169 73.3435C216.501 73.3435 220.013 77.1283 220.013 81.7971C220.013 86.4659 216.501 90.2507 212.169 90.2507Z" fill="black"/>
</g>
<path d="M195.045 84.1273H246.798V99.1258H195.045V84.1273Z" fill="#F25763"/>
<path d="M225.976 90.0837C225.976 90.0837 219.327 90.6166 215.836 89.9803" stroke="black" stroke-width="1.67" stroke-linecap="round" stroke-linejoin="round"/>
<path d="M240.723 64.9456C240.723 64.9456 234.075 67.9755 230.607 61.7725" stroke="black" stroke-width="3.34" stroke-linecap="round" stroke-linejoin="round"/>
<path d="M200.681 64.9456C200.681 64.9456 207.33 67.9755 210.797 61.7725" stroke="black" stroke-width="3.34" stroke-linecap="round" stroke-linejoin="round"/>
<path d="M224.708 19.0592H217.095C212.256 19.0592 208.326 22.9798 208.326 27.807V39.052H233.485V27.807C233.485 22.9798 229.555 19.0592 224.716 19.0592H224.708Z" fill="#00B8EB"/>
<path d="M208.111 40.4994H233.684C234.767 40.4994 235.645 41.3753 235.645 42.4557V45.756C235.645 46.8365 234.767 47.7124 233.684 47.7124H208.111C207.028 47.7124 206.15 46.8365 206.15 45.756V42.4557C206.15 41.3753 207.028 40.4994 208.111 40.4994Z" fill="#00B8EB"/>
<path d="M232.234 40.6823V47.4976" stroke="black" stroke-width="0.83" stroke-miterlimit="10" stroke-linecap="round"/>
<path d="M228.455 40.6823V47.4976" stroke="black" stroke-width="0.83" stroke-miterlimit="10" stroke-linecap="round"/>
<path d="M224.676 40.6823V47.4976" stroke="black" stroke-width="0.83" stroke-miterlimit="10" stroke-linecap="round"/>
<path d="M220.898 40.6823V47.4976" stroke="black" stroke-width="0.83" stroke-miterlimit="10" stroke-linecap="round"/>
<path d="M217.127 40.6823V47.4976" stroke="black" stroke-width="0.83" stroke-miterlimit="10" stroke-linecap="round"/>
<path d="M213.348 40.6823V47.4976" stroke="black" stroke-width="0.83" stroke-miterlimit="10" stroke-linecap="round"/>
<path d="M209.57 40.6823V47.4976" stroke="black" stroke-width="0.83" stroke-miterlimit="10" stroke-linecap="round"/>
<path d="M244.032 98.4021C240.148 98.4021 237.001 95.867 237.001 92.7399C237.001 89.6127 240.148 87.0776 244.032 87.0776C247.915 87.0776 251.063 89.6127 251.063 92.7399C251.063 95.867 247.915 98.4021 244.032 98.4021Z" fill="#CE3649"/>
<path d="M197.772 98.4021C193.888 98.4021 190.741 95.867 190.741 92.7399C190.741 89.6127 193.888 87.0776 197.772 87.0776C201.655 87.0776 204.803 89.6127 204.803 92.7399C204.803 95.867 201.655 98.4021 197.772 98.4021Z" fill="#CE3649"/>
<path d="M143.452 131.938L146.673 127.556" stroke="#CE3649" stroke-width="3.77" stroke-linecap="round" stroke-linejoin="round"/>
<path d="M150.682 133.219L144.369 132.813" stroke="#CE3649" stroke-width="3.77" stroke-linecap="round" stroke-linejoin="round"/>
<path d="M147.462 139.581L142.774 133.497" stroke="#CE3649" stroke-width="3.77" stroke-linecap="round" stroke-linejoin="round"/>
<path d="M141.276 140.145L142.28 132.765" stroke="#CE3649" stroke-width="3.77" stroke-linecap="round" stroke-linejoin="round"/>
<path d="M143.946 133.059L122.167 123.636" stroke="#CE3649" stroke-width="3.77" stroke-linecap="round" stroke-linejoin="round"/>
<path d="M328.173 145.776L330.27 140.766" stroke="#CE3649" stroke-width="3.77" stroke-linecap="round" stroke-linejoin="round"/>
<path d="M335.5 145.33L329.266 146.412" stroke="#CE3649" stroke-width="3.77" stroke-linecap="round" stroke-linejoin="round"/>
<path d="M333.857 152.273L327.878 147.446" stroke="#CE3649" stroke-width="3.77" stroke-linecap="round" stroke-linejoin="round"/>
<path d="M327.982 154.261L327.225 146.857" stroke="#CE3649" stroke-width="3.77" stroke-linecap="round" stroke-linejoin="round"/>
<path d="M328.157 146.698L309.472 141.768" stroke="#CE3649" stroke-width="3.77" stroke-linecap="round" stroke-linejoin="round"/>
</svg>
