<svg width="201" height="217" viewBox="0 0 201 217" fill="none" xmlns="http://www.w3.org/2000/svg">
<rect width="183" height="200" rx="4" transform="matrix(-0.996195 0.0871557 0.0871557 0.996195 182.936 0.855682)" fill="#F2F2F2"/>
<g clip-path="url(#clip0_395_898)">
<path d="M140.463 144.527L141.73 175.579C141.73 175.579 151.23 176.861 150.987 175.039C150.744 173.222 147.774 172.683 145.384 172.636L143.733 144.332L140.467 144.522L140.463 144.527Z" fill="black"/>
<path d="M78.5605 183.415C89.5502 182.675 98.3453 180.386 98.205 178.3C98.0647 176.215 89.0421 175.124 78.0524 175.864C67.0628 176.603 58.2677 178.893 58.408 180.978C58.5483 183.063 67.5709 184.154 78.5605 183.415Z" fill="#EDEDED"/>
<path d="M125.048 102.846L62.7493 165.281L78.1113 180.603L140.41 118.167L125.048 102.846Z" fill="#7D59ED"/>
<path d="M132.648 126.476L133.472 154.587L155.364 153.945L154.54 125.833L132.648 126.476Z" fill="#ACD7E4"/>
<path d="M104.496 139.181C110.484 133.662 114.213 127.967 112.824 126.461C111.435 124.954 105.455 128.207 99.4664 133.726C93.478 139.244 89.7494 144.939 91.1383 146.446C92.5272 147.952 98.5076 144.699 104.496 139.181Z" fill="#6E54DE"/>
<path d="M55.7377 62.9558L42.0672 122.744L101.771 136.246L106.427 115.87L67.271 106.924L76.1185 67.6137L55.7377 62.9558Z" fill="#F25763"/>
<path d="M92.1352 112.765L112.736 105.52L85.7734 28.5813L65.2549 35.9413L92.1352 112.765Z" fill="black"/>
</g>
<defs>
<clipPath id="clip0_395_898">
<rect width="112" height="154" fill="white" transform="translate(35.9569 31.9333) rotate(-3.84944)"/>
</clipPath>
</defs>
</svg>
