<svg width="296" height="224" viewBox="0 0 296 224" fill="none" xmlns="http://www.w3.org/2000/svg">
<rect x="18.2402" y="0.317017" width="278" height="200" rx="4" transform="rotate(4.99779 18.2402 0.317017)" fill="#F2F2F2"/>
<path d="M78.9292 131.713L100.174 123.096L122.936 114.181" stroke="black" stroke-width="2.81" stroke-linecap="round" stroke-linejoin="round"/>
<path d="M206.473 87.7795L209.186 105.461L195.735 114.509" stroke="black" stroke-width="2.81" stroke-linecap="round" stroke-linejoin="round"/>
<path d="M143.114 186.214C166.502 188.26 185.601 188.311 185.774 186.33C185.948 184.349 167.129 181.084 143.742 179.039C120.355 176.994 101.255 176.942 101.082 178.924C100.908 180.905 119.727 184.169 143.114 186.214Z" fill="#E5E5E5"/>
<path d="M143.456 144.265L132.144 180.809C132.144 180.809 122.838 181.848 122.483 179.964C122.127 178.08 126.876 177.755 129.16 177.794L140.863 142.937L143.456 144.265Z" fill="black"/>
<path d="M155.345 150.272L152.079 181.451C152.079 181.451 161.18 184.099 161.204 182.249C161.229 180.398 158.409 179.431 156.077 179.046L158.568 150.564L155.344 150.282L155.345 150.272Z" fill="black"/>
<mask id="mask0_395_527" style="mask-type:luminance" maskUnits="userSpaceOnUse" x="141" y="38" width="24" height="27">
<path d="M164.422 58.376C164.422 58.376 165.086 36.7537 151.404 38.6717C136.978 40.6947 142.699 64.037 142.699 64.037C142.699 64.037 150.791 63.6431 164.422 58.376Z" fill="white"/>
</mask>
<g mask="url(#mask0_395_527)">
<path d="M167.729 60.0572C167.729 60.0572 164.732 34.8502 151.214 35.9112C137.696 36.9722 140.905 64.4709 140.905 64.4709C140.905 64.4709 154.108 65.3251 167.739 60.0581L167.729 60.0572Z" fill="#7E58EC"/>
<path d="M152.379 61.0782L140.112 64.2213C140.112 64.2213 138.351 46.7631 143.765 42.1995C154.563 43.8448 152.379 61.0782 152.379 61.0782Z" fill="white"/>
</g>
<path d="M149.115 61.714C149.115 61.714 162.119 60.9185 164.371 47.7267C166.625 34.525 184.077 38.8652 180.937 50.9879C177.811 63.0518 165.817 62.1732 165.817 62.1732L149.116 61.7041L149.115 61.714Z" fill="#F25763"/>
<path d="M130.916 53.5672L129.416 54.1506C126.208 55.398 124.589 59.0585 125.801 62.3266L135.965 89.7422C137.177 93.0103 140.759 94.6483 143.967 93.4009L145.468 92.8176C148.676 91.5702 150.294 87.9097 149.082 84.6416L138.918 57.226C137.707 53.9579 134.124 52.3198 130.916 53.5672Z" fill="#7E58EC"/>
<path d="M166.315 94.6489L167.691 95.4838C170.633 97.2691 174.446 96.2778 176.207 93.2696L190.975 68.0343C192.735 65.0261 191.777 61.1403 188.834 59.355L187.458 58.5201C184.515 56.7348 180.703 57.7261 178.942 60.7343L164.174 85.9696C162.413 88.9778 163.372 92.8637 166.315 94.6489Z" fill="#7E58EC"/>
<path d="M150.743 152.624C175.351 154.776 197.113 135.786 199.35 110.209C201.587 84.6319 183.451 62.1531 158.843 60.0011C134.234 57.8491 112.472 76.8388 110.236 102.416C107.999 127.993 126.135 150.472 150.743 152.624Z" fill="#7E58EC"/>
<path d="M163.87 97.6729C158.463 98.9025 154.337 97.6103 151.974 93.5483" stroke="black" stroke-width="1.41" stroke-linecap="round" stroke-linejoin="round"/>
<path d="M153.36 90.9357C152.921 92.9301 150.953 94.4504 148.961 94.3362" stroke="black" stroke-width="1.41" stroke-linecap="round" stroke-linejoin="round"/>
<mask id="mask1_395_527" style="mask-type:luminance" maskUnits="userSpaceOnUse" x="132" y="68" width="23" height="25">
<path d="M142.879 92.1718C148.727 92.5282 153.791 87.5926 154.19 81.1478C154.59 74.703 150.173 69.1896 144.326 68.8332C138.478 68.4769 133.414 73.4125 133.015 79.8572C132.615 86.302 137.031 91.8154 142.879 92.1718Z" fill="white"/>
</mask>
<g mask="url(#mask1_395_527)">
<path d="M142.879 92.1718C148.727 92.5282 153.791 87.5926 154.19 81.1478C154.59 74.703 150.173 69.1896 144.326 68.8332C138.478 68.4769 133.414 73.4125 133.015 79.8572C132.615 86.302 137.031 91.8154 142.879 92.1718Z" fill="white"/>
<path d="M150.595 91.3548C155.694 91.8007 160.225 87.6194 160.715 82.0155C161.205 76.4116 157.469 71.5073 152.37 71.0614C147.271 70.6154 142.74 74.7968 142.25 80.4007C141.76 86.0046 145.496 90.9089 150.595 91.3548Z" fill="black"/>
</g>
<mask id="mask2_395_527" style="mask-type:luminance" maskUnits="userSpaceOnUse" x="161" y="71" width="22" height="24">
<path d="M171.113 94.6421C176.961 94.9985 182.025 90.0629 182.425 83.6181C182.824 77.1734 178.408 71.66 172.56 71.3036C166.713 70.9472 161.648 75.8828 161.249 82.3276C160.849 88.7723 165.266 94.2857 171.113 94.6421Z" fill="white"/>
</mask>
<g mask="url(#mask2_395_527)">
<path d="M171.113 94.6421C176.961 94.9985 182.025 90.0629 182.425 83.6181C182.824 77.1734 178.408 71.66 172.56 71.3036C166.713 70.9472 161.648 75.8828 161.249 82.3276C160.849 88.7723 165.266 94.2857 171.113 94.6421Z" fill="white"/>
<path d="M178.83 93.8239C183.929 94.2698 188.46 90.0884 188.95 84.4846C189.44 78.8807 185.703 73.9764 180.604 73.5304C175.505 73.0845 170.974 77.2659 170.484 82.8697C169.994 88.4736 173.73 93.378 178.83 93.8239Z" fill="black"/>
</g>
<path d="M141.588 66.8739L174.818 69.7799C180.701 70.2943 185.047 75.5813 184.522 81.5839L184.399 82.9951L129.859 78.2256L129.982 76.8144C130.507 70.8118 135.705 66.3595 141.588 66.8739Z" fill="#7E58EC"/>
<path d="M134.759 74.9389L152.815 76.5179" stroke="black" stroke-width="2.11" stroke-linecap="round" stroke-linejoin="round"/>
<path d="M162.399 77.356L180.465 78.9359" stroke="black" stroke-width="2.11" stroke-linecap="round" stroke-linejoin="round"/>
<path d="M79.433 133.469L81.5544 138.051" stroke="black" stroke-width="2.81" stroke-linecap="round" stroke-linejoin="round"/>
<path d="M75.2456 138.821L78.3315 133.834" stroke="black" stroke-width="2.81" stroke-linecap="round" stroke-linejoin="round"/>
<path d="M71.5425 133.36L78.4723 132.224" stroke="black" stroke-width="2.81" stroke-linecap="round" stroke-linejoin="round"/>
<path d="M73.7842 128.038L79.275 132.134" stroke="black" stroke-width="2.81" stroke-linecap="round" stroke-linejoin="round"/>
<path d="M204.897 88.4127L200.137 89.8791" stroke="black" stroke-width="2.81" stroke-linecap="round" stroke-linejoin="round"/>
<path d="M200.349 83.4086L204.715 87.2451" stroke="black" stroke-width="2.81" stroke-linecap="round" stroke-linejoin="round"/>
<path d="M206.211 80.4563L206.251 87.6299" stroke="black" stroke-width="2.81" stroke-linecap="round" stroke-linejoin="round"/>
<path d="M211.028 83.5013L206.219 88.4482" stroke="black" stroke-width="2.81" stroke-linecap="round" stroke-linejoin="round"/>
</svg>
