<svg width="94" height="420" viewBox="0 0 94 420" fill="none" xmlns="http://www.w3.org/2000/svg">
<g clip-path="url(#clip0_395_1624)">
<mask id="mask0_395_1624" style="mask-type:luminance" maskUnits="userSpaceOnUse" x="-2" y="2" width="99" height="71">
<path d="M96.6965 2.22443H-1.83569V72.3689H96.6965V2.22443Z" fill="white"/>
</mask>
<g mask="url(#mask0_395_1624)">
<path d="M-4.61326 0.333994L-5.07275 7.17279L29.0136 9.49435L29.4731 2.65555L-4.61326 0.333994Z" fill="#7D59ED"/>
<path d="M-6.56628 40.7138L10.0612 74.0645L16.1857 70.9761L-0.503771 37.6384L-6.56628 40.7138Z" fill="#7D59ED"/>
<path d="M55.729 44.8109C55.1684 42.466 56.6115 40.094 58.9405 39.5296L62.1262 38.7578L61.4942 60.2555L68.3573 60.4853L69.2175 29.9921L57.3465 32.8649C47.142 35.4124 49.1094 46.4146 49.1094 46.4146L55.7278 44.8109H55.729Z" fill="#7D59ED"/>
<path d="M91.0028 17.3909C92.6425 19.0405 93.5249 21.2617 93.5249 23.6102C93.5249 25.9586 92.6425 28.1162 91.0028 29.7658C87.5993 33.1936 82.115 33.1936 78.7115 29.7658L73.858 34.6524C76.8834 37.6996 80.8545 39.222 84.8256 39.222C88.7966 39.222 92.8309 37.6996 95.8563 34.6524C98.7553 31.7337 100.395 27.7992 100.395 23.6102C100.395 19.4212 98.7565 15.4867 95.8563 12.5043L91.0028 17.3909Z" fill="#7D59ED"/>
<path d="M64.4822 67.6331L65.4723 74.3343L84.3129 71.722L83.3392 64.8958L64.4822 67.6331Z" fill="#7D59ED"/>
<path d="M55.421 11.6903L52.3621 17.8837L60.2636 21.8397L63.3226 15.6464L55.421 11.6903Z" fill="#7D59ED"/>
<path d="M-7.18542 25.8408L6.87071 39.9302L11.6622 35.1073L2.45842 25.8408L11.6622 16.5118L6.87071 11.6888L-7.18542 25.8408Z" fill="#7D59ED"/>
<path d="M12.6363 45.237L11.6617 52.0208L39.049 56.009L40.0235 49.2252L12.6363 45.237Z" fill="#7D59ED"/>
<path d="M70.7916 1.21576C68.081 1.21576 65.8749 3.43694 65.8749 6.16598C65.8749 8.89503 68.081 11.1162 70.7916 11.1162C73.5022 11.1162 75.7083 8.89503 75.7083 6.16598C75.7083 3.43694 73.5022 1.21576 70.7916 1.21576Z" fill="#7D59ED"/>
<path d="M95.4723 5.74296L90.9231 0.587708L71.7805 17.6713L76.3543 22.7901L95.4723 5.74296Z" fill="#7D59ED"/>
<path d="M34.5149 17.9636C29.6473 17.9636 25.7781 21.8592 25.7781 26.7587C25.7781 31.6583 29.6473 35.5539 34.5149 35.5539C39.3824 35.5539 43.2505 31.5958 43.2505 26.7587C43.2505 21.9216 39.3204 17.9636 34.5149 17.9636ZM34.5149 42.34C25.9665 42.34 18.9771 35.3665 18.9771 26.7587C18.9771 18.1509 25.9665 11.1162 34.5149 11.1162C43.0632 11.1162 49.9895 18.1521 49.9895 26.7587C49.9895 35.3654 43.0632 42.34 34.5149 42.34Z" fill="#7D59ED"/>
<path d="M89.9447 62.373C93.141 61.7603 93.9099 61.7956 94.6578 62.7454C94.9468 63.0859 95.0229 63.5631 94.907 64.0887L101.683 65.2493C102.108 62.723 101.497 60.3333 99.9689 58.3784C96.4461 54.0893 91.7225 55.0013 88.6116 55.6329C85.1684 56.3281 84.1198 56.3222 82.8991 54.6207C82.4414 54.0127 82.4567 53.3257 82.5199 52.8343C82.6615 51.993 83.2045 51.1952 83.9501 50.7192C85.3334 49.8354 87.2142 50.2137 88.092 51.6077L93.8408 47.9371C90.9723 43.3816 84.8828 42.0077 80.3043 44.9312C77.9624 46.4265 76.2806 48.8527 75.7633 51.5876C75.3197 54.2 75.9096 56.6793 77.4194 58.7213C81.3354 64.1111 86.5541 63.0341 89.9447 62.3742" fill="#7D59ED"/>
<path d="M21.9731 64.9465L53.8821 74.3343L54.1419 60.8824L47.3362 60.748L47.2496 65.1904L23.8668 58.3195L21.9731 64.9465Z" fill="#7D59ED"/>
</g>
<mask id="mask1_395_1624" style="mask-type:luminance" maskUnits="userSpaceOnUse" x="-2" y="76" width="99" height="70">
<path d="M96.6965 76.1989H-1.83569V145.395H96.6965V76.1989Z" fill="white"/>
</mask>
<g mask="url(#mask1_395_1624)">
<path d="M-4.61326 74.334L-5.07275 81.0804L29.0136 83.3706L29.4731 76.6242L-4.61326 74.334Z" fill="#7D59ED"/>
<path d="M-6.56628 114.168L10.0612 147.068L16.1857 144.021L-0.503771 111.134L-6.56628 114.168Z" fill="#7D59ED"/>
<path d="M55.729 118.21C55.1684 115.897 56.6115 113.557 58.9405 113L62.1262 112.239L61.4942 133.446L68.3573 133.672L69.2175 103.591L57.3465 106.425C47.142 108.938 49.1094 119.792 49.1094 119.792L55.7278 118.21H55.729Z" fill="#7D59ED"/>
<path d="M91.0028 91.1604C92.6425 92.7878 93.5249 94.979 93.5249 97.2957C93.5249 99.6124 92.6425 101.741 91.0028 103.368C87.5993 106.75 82.115 106.75 78.7115 103.368L73.858 108.189C76.8834 111.195 80.8545 112.697 84.8256 112.697C88.7966 112.697 92.8309 111.195 95.8563 108.189C98.7553 105.309 100.395 101.428 100.395 97.2957C100.395 93.1633 98.7565 89.2819 95.8563 86.3398L91.0028 91.1604Z" fill="#7D59ED"/>
<path d="M64.4822 140.724L65.4723 147.334L84.3129 144.757L83.3392 138.023L64.4822 140.724Z" fill="#7D59ED"/>
<path d="M55.421 85.5369L52.3621 91.6465L60.2636 95.5491L63.3226 89.4394L55.421 85.5369Z" fill="#7D59ED"/>
<path d="M-7.18542 99.4961L6.87071 113.395L11.6622 108.637L2.45842 99.4961L11.6622 90.2932L6.87071 85.5354L-7.18542 99.4961Z" fill="#7D59ED"/>
<path d="M12.6363 118.63L11.6617 125.322L39.049 129.257L40.0235 122.564L12.6363 118.63Z" fill="#7D59ED"/>
<path d="M70.7916 75.2039C68.081 75.2039 65.8749 77.395 65.8749 80.0872C65.8749 82.7794 68.081 84.9705 70.7916 84.9705C73.5022 84.9705 75.7083 82.7794 75.7083 80.0872C75.7083 77.395 73.5022 75.2039 70.7916 75.2039Z" fill="#7D59ED"/>
<path d="M95.4723 79.6699L90.9231 74.5843L71.7805 91.4371L76.3543 96.4866L95.4723 79.6699Z" fill="#7D59ED"/>
<path d="M34.5149 91.7253C29.6473 91.7253 25.7781 95.5683 25.7781 100.402C25.7781 105.235 29.6473 109.078 34.5149 109.078C39.3824 109.078 43.2505 105.173 43.2505 100.402C43.2505 95.6299 39.3204 91.7253 34.5149 91.7253ZM34.5149 115.772C25.9665 115.772 18.9771 108.893 18.9771 100.402C18.9771 91.9102 25.9665 84.9705 34.5149 84.9705C43.0632 84.9705 49.9895 91.9113 49.9895 100.402C49.9895 108.892 43.0632 115.772 34.5149 115.772Z" fill="#7D59ED"/>
<path d="M89.9447 135.535C93.141 134.93 93.9099 134.965 94.6578 135.902C94.9468 136.238 95.0229 136.709 94.907 137.227L101.683 138.372C102.108 135.88 101.497 133.523 99.9689 131.594C96.4461 127.363 91.7225 128.263 88.6116 128.886C85.1684 129.571 84.1198 129.566 82.8991 127.887C82.4414 127.287 82.4567 126.61 82.5199 126.125C82.6615 125.295 83.2045 124.508 83.9501 124.038C85.3334 123.167 87.2142 123.54 88.092 124.915L93.8408 121.294C90.9723 116.8 84.8828 115.445 80.3043 118.329C77.9624 119.804 76.2806 122.197 75.7633 124.895C75.3197 127.472 75.9096 129.918 77.4194 131.932C81.3354 137.249 86.5541 136.187 89.9447 135.536" fill="#7D59ED"/>
<path d="M21.9731 138.073L53.8821 147.334L54.1419 134.064L47.3362 133.932L47.2496 138.314L23.8668 131.536L21.9731 138.073Z" fill="#7D59ED"/>
</g>
<mask id="mask2_395_1624" style="mask-type:luminance" maskUnits="userSpaceOnUse" x="-2" y="149" width="99" height="70">
<path d="M96.6965 149.199H-1.83569V218.395H96.6965V149.199Z" fill="white"/>
</mask>
<g mask="url(#mask2_395_1624)">
<path d="M-4.61326 147.334L-5.07275 154.08L29.0136 156.371L29.4731 149.624L-4.61326 147.334Z" fill="#7D59ED"/>
<path d="M-6.56628 187.168L10.0612 220.068L16.1857 217.021L-0.503771 184.134L-6.56628 187.168Z" fill="#7D59ED"/>
<path d="M55.729 191.21C55.1684 188.897 56.6115 186.557 58.9405 186L62.1262 185.239L61.4942 206.446L68.3573 206.672L69.2175 176.591L57.3465 179.425C47.142 181.938 49.1094 192.792 49.1094 192.792L55.7278 191.21H55.729Z" fill="#7D59ED"/>
<path d="M91.0028 164.16C92.6425 165.788 93.5249 167.979 93.5249 170.296C93.5249 172.612 92.6425 174.741 91.0028 176.368C87.5993 179.75 82.115 179.75 78.7115 176.368L73.858 181.189C76.8834 184.195 80.8545 185.697 84.8256 185.697C88.7966 185.697 92.8309 184.195 95.8563 181.189C98.7553 178.309 100.395 174.428 100.395 170.296C100.395 166.163 98.7565 162.282 95.8563 159.34L91.0028 164.16Z" fill="#7D59ED"/>
<path d="M64.4822 213.724L65.4723 220.334L84.3129 217.757L83.3392 211.023L64.4822 213.724Z" fill="#7D59ED"/>
<path d="M55.421 158.537L52.3621 164.647L60.2636 168.549L63.3226 162.439L55.421 158.537Z" fill="#7D59ED"/>
<path d="M-7.18542 172.496L6.87071 186.395L11.6622 181.637L2.45842 172.496L11.6622 163.293L6.87071 158.535L-7.18542 172.496Z" fill="#7D59ED"/>
<path d="M12.6363 191.63L11.6617 198.322L39.049 202.257L40.0235 195.564L12.6363 191.63Z" fill="#7D59ED"/>
<path d="M70.7916 148.204C68.081 148.204 65.8749 150.395 65.8749 153.087C65.8749 155.779 68.081 157.971 70.7916 157.971C73.5022 157.971 75.7083 155.779 75.7083 153.087C75.7083 150.395 73.5022 148.204 70.7916 148.204Z" fill="#7D59ED"/>
<path d="M95.4723 152.67L90.9231 147.584L71.7805 164.437L76.3543 169.487L95.4723 152.67Z" fill="#7D59ED"/>
<path d="M34.5149 164.725C29.6473 164.725 25.7781 168.568 25.7781 173.402C25.7781 178.235 29.6473 182.078 34.5149 182.078C39.3824 182.078 43.2505 178.173 43.2505 173.402C43.2505 168.63 39.3204 164.725 34.5149 164.725ZM34.5149 188.772C25.9665 188.772 18.9771 181.893 18.9771 173.402C18.9771 164.91 25.9665 157.971 34.5149 157.971C43.0632 157.971 49.9895 164.911 49.9895 173.402C49.9895 181.892 43.0632 188.772 34.5149 188.772Z" fill="#7D59ED"/>
<path d="M89.9447 208.535C93.141 207.93 93.9099 207.965 94.6578 208.902C94.9468 209.238 95.0229 209.709 94.907 210.227L101.683 211.372C102.108 208.88 101.497 206.523 99.9689 204.594C96.4461 200.363 91.7225 201.263 88.6116 201.886C85.1684 202.571 84.1198 202.566 82.8991 200.887C82.4414 200.287 82.4567 199.61 82.5199 199.125C82.6615 198.295 83.2045 197.508 83.9501 197.038C85.3334 196.167 87.2142 196.54 88.092 197.915L93.8408 194.294C90.9723 189.8 84.8828 188.445 80.3043 191.329C77.9624 192.804 76.2806 195.197 75.7633 197.895C75.3197 200.472 75.9096 202.918 77.4194 204.932C81.3354 210.249 86.5541 209.187 89.9447 208.536" fill="#7D59ED"/>
<path d="M21.9731 211.073L53.8821 220.334L54.1419 207.064L47.3362 206.932L47.2496 211.314L23.8668 204.536L21.9731 211.073Z" fill="#7D59ED"/>
</g>
<mask id="mask3_395_1624" style="mask-type:luminance" maskUnits="userSpaceOnUse" x="-2" y="222" width="99" height="71">
<path d="M96.6965 222.224H-1.83569V292.369H96.6965V222.224Z" fill="white"/>
</mask>
<g mask="url(#mask3_395_1624)">
<path d="M-4.61326 220.334L-5.07275 227.173L29.0136 229.494L29.4731 222.656L-4.61326 220.334Z" fill="#7D59ED"/>
<path d="M-6.56628 260.714L10.0612 294.065L16.1857 290.976L-0.503771 257.638L-6.56628 260.714Z" fill="#7D59ED"/>
<path d="M55.729 264.811C55.1684 262.466 56.6115 260.094 58.9405 259.53L62.1262 258.758L61.4942 280.255L68.3573 280.485L69.2175 249.992L57.3465 252.865C47.142 255.412 49.1094 266.415 49.1094 266.415L55.7278 264.811H55.729Z" fill="#7D59ED"/>
<path d="M91.0028 237.391C92.6425 239.041 93.5249 241.262 93.5249 243.61C93.5249 245.959 92.6425 248.116 91.0028 249.766C87.5993 253.194 82.115 253.194 78.7115 249.766L73.858 254.652C76.8834 257.7 80.8545 259.222 84.8256 259.222C88.7966 259.222 92.8309 257.7 95.8563 254.652C98.7553 251.734 100.395 247.799 100.395 243.61C100.395 239.421 98.7565 235.487 95.8563 232.504L91.0028 237.391Z" fill="#7D59ED"/>
<path d="M64.4822 287.633L65.4723 294.334L84.3129 291.722L83.3392 284.896L64.4822 287.633Z" fill="#7D59ED"/>
<path d="M55.421 231.69L52.3621 237.884L60.2636 241.84L63.3226 235.646L55.421 231.69Z" fill="#7D59ED"/>
<path d="M-7.18542 245.841L6.87071 259.93L11.6622 255.107L2.45842 245.841L11.6622 236.512L6.87071 231.689L-7.18542 245.841Z" fill="#7D59ED"/>
<path d="M12.6363 265.237L11.6617 272.021L39.049 276.009L40.0235 269.225L12.6363 265.237Z" fill="#7D59ED"/>
<path d="M70.7916 221.216C68.081 221.216 65.8749 223.437 65.8749 226.166C65.8749 228.895 68.081 231.116 70.7916 231.116C73.5022 231.116 75.7083 228.895 75.7083 226.166C75.7083 223.437 73.5022 221.216 70.7916 221.216Z" fill="#7D59ED"/>
<path d="M95.4723 225.743L90.9231 220.588L71.7805 237.671L76.3543 242.79L95.4723 225.743Z" fill="#7D59ED"/>
<path d="M34.5149 237.964C29.6473 237.964 25.7781 241.859 25.7781 246.759C25.7781 251.658 29.6473 255.554 34.5149 255.554C39.3824 255.554 43.2505 251.596 43.2505 246.759C43.2505 241.922 39.3204 237.964 34.5149 237.964ZM34.5149 262.34C25.9665 262.34 18.9771 255.367 18.9771 246.759C18.9771 238.151 25.9665 231.116 34.5149 231.116C43.0632 231.116 49.9895 238.152 49.9895 246.759C49.9895 255.365 43.0632 262.34 34.5149 262.34Z" fill="#7D59ED"/>
<path d="M89.9447 282.373C93.141 281.76 93.9099 281.796 94.6578 282.745C94.9468 283.086 95.0229 283.563 94.907 284.089L101.683 285.249C102.108 282.723 101.497 280.333 99.9689 278.378C96.4461 274.089 91.7225 275.001 88.6116 275.633C85.1684 276.328 84.1198 276.322 82.8991 274.621C82.4414 274.013 82.4567 273.326 82.5199 272.834C82.6615 271.993 83.2045 271.195 83.9501 270.719C85.3334 269.835 87.2142 270.214 88.092 271.608L93.8408 267.937C90.9723 263.382 84.8828 262.008 80.3043 264.931C77.9624 266.426 76.2806 268.853 75.7633 271.588C75.3197 274.2 75.9096 276.679 77.4194 278.721C81.3354 284.111 86.5541 283.034 89.9447 282.374" fill="#7D59ED"/>
<path d="M21.9731 284.946L53.8821 294.334L54.1419 280.882L47.3362 280.748L47.2496 285.19L23.8668 278.319L21.9731 284.946Z" fill="#7D59ED"/>
</g>
<mask id="mask4_395_1624" style="mask-type:luminance" maskUnits="userSpaceOnUse" x="-2" y="296" width="99" height="70">
<path d="M96.6965 296.199H-1.83569V365.395H96.6965V296.199Z" fill="white"/>
</mask>
<g mask="url(#mask4_395_1624)">
<path d="M-4.61326 294.334L-5.07275 301.08L29.0136 303.371L29.4731 296.624L-4.61326 294.334Z" fill="#7D59ED"/>
<path d="M-6.56628 334.168L10.0612 367.068L16.1857 364.021L-0.503771 331.134L-6.56628 334.168Z" fill="#7D59ED"/>
<path d="M55.729 338.21C55.1684 335.897 56.6115 333.557 58.9405 333L62.1262 332.239L61.4942 353.446L68.3573 353.672L69.2175 323.591L57.3465 326.425C47.142 328.938 49.1094 339.792 49.1094 339.792L55.7278 338.21H55.729Z" fill="#7D59ED"/>
<path d="M91.0028 311.16C92.6425 312.788 93.5249 314.979 93.5249 317.296C93.5249 319.612 92.6425 321.741 91.0028 323.368C87.5993 326.75 82.115 326.75 78.7115 323.368L73.858 328.189C76.8834 331.195 80.8545 332.697 84.8256 332.697C88.7966 332.697 92.8309 331.195 95.8563 328.189C98.7553 325.309 100.395 321.428 100.395 317.296C100.395 313.163 98.7565 309.282 95.8563 306.34L91.0028 311.16Z" fill="#7D59ED"/>
<path d="M64.4822 360.724L65.4723 367.334L84.3129 364.757L83.3392 358.023L64.4822 360.724Z" fill="#7D59ED"/>
<path d="M55.421 305.537L52.3621 311.647L60.2636 315.549L63.3226 309.439L55.421 305.537Z" fill="#7D59ED"/>
<path d="M-7.18542 319.496L6.87071 333.395L11.6622 328.637L2.45842 319.496L11.6622 310.293L6.87071 305.535L-7.18542 319.496Z" fill="#7D59ED"/>
<path d="M12.6363 338.63L11.6617 345.322L39.049 349.257L40.0235 342.564L12.6363 338.63Z" fill="#7D59ED"/>
<path d="M70.7916 295.204C68.081 295.204 65.8749 297.395 65.8749 300.087C65.8749 302.779 68.081 304.971 70.7916 304.971C73.5022 304.971 75.7083 302.779 75.7083 300.087C75.7083 297.395 73.5022 295.204 70.7916 295.204Z" fill="#7D59ED"/>
<path d="M95.4723 299.67L90.9231 294.584L71.7805 311.437L76.3543 316.487L95.4723 299.67Z" fill="#7D59ED"/>
<path d="M34.5149 311.725C29.6473 311.725 25.7781 315.568 25.7781 320.402C25.7781 325.235 29.6473 329.078 34.5149 329.078C39.3824 329.078 43.2505 325.173 43.2505 320.402C43.2505 315.63 39.3204 311.725 34.5149 311.725ZM34.5149 335.772C25.9665 335.772 18.9771 328.893 18.9771 320.402C18.9771 311.91 25.9665 304.97 34.5149 304.97C43.0632 304.97 49.9895 311.911 49.9895 320.402C49.9895 328.892 43.0632 335.772 34.5149 335.772Z" fill="#7D59ED"/>
<path d="M89.9447 355.535C93.141 354.93 93.9099 354.965 94.6578 355.902C94.9468 356.238 95.0229 356.709 94.907 357.227L101.683 358.372C102.108 355.88 101.497 353.522 99.9689 351.594C96.4461 347.363 91.7225 348.263 88.6116 348.886C85.1684 349.571 84.1198 349.566 82.8991 347.887C82.4414 347.287 82.4567 346.61 82.5199 346.125C82.6615 345.295 83.2045 344.508 83.9501 344.038C85.3334 343.166 87.2142 343.54 88.092 344.915L93.8408 341.294C90.9723 336.8 84.8828 335.444 80.3043 338.328C77.9624 339.804 76.2806 342.197 75.7633 344.895C75.3197 347.472 75.9096 349.918 77.4194 351.932C81.3354 357.249 86.5541 356.187 89.9447 355.536" fill="#7D59ED"/>
<path d="M21.9731 358.073L53.8821 367.334L54.1419 354.064L47.3362 353.932L47.2496 358.314L23.8668 351.536L21.9731 358.073Z" fill="#7D59ED"/>
</g>
<mask id="mask5_395_1624" style="mask-type:luminance" maskUnits="userSpaceOnUse" x="-2" y="369" width="99" height="70">
<path d="M96.6965 369.199H-1.83569V438.395H96.6965V369.199Z" fill="white"/>
</mask>
<g mask="url(#mask5_395_1624)">
<path d="M-4.61326 367.334L-5.07275 374.08L29.0136 376.371L29.4731 369.624L-4.61326 367.334Z" fill="#7D59ED"/>
<path d="M-6.56628 407.168L10.0612 440.068L16.1857 437.021L-0.503771 404.134L-6.56628 407.168Z" fill="#7D59ED"/>
<path d="M55.729 411.21C55.1684 408.897 56.6115 406.557 58.9405 406L62.1262 405.239L61.4942 426.446L68.3573 426.672L69.2175 396.591L57.3465 399.425C47.142 401.938 49.1094 412.792 49.1094 412.792L55.7278 411.21H55.729Z" fill="#7D59ED"/>
<path d="M91.0028 384.16C92.6425 385.788 93.5249 387.979 93.5249 390.296C93.5249 392.612 92.6425 394.741 91.0028 396.368C87.5993 399.75 82.115 399.75 78.7115 396.368L73.858 401.189C76.8834 404.195 80.8545 405.697 84.8256 405.697C88.7966 405.697 92.8309 404.195 95.8563 401.189C98.7553 398.309 100.395 394.428 100.395 390.296C100.395 386.163 98.7565 382.282 95.8563 379.34L91.0028 384.16Z" fill="#7D59ED"/>
<path d="M55.421 378.537L52.3621 384.647L60.2636 388.549L63.3226 382.439L55.421 378.537Z" fill="#7D59ED"/>
<path d="M-7.18542 392.496L6.87071 406.395L11.6622 401.637L2.45842 392.496L11.6622 383.293L6.87071 378.535L-7.18542 392.496Z" fill="#7D59ED"/>
<path d="M12.6363 411.63L11.6617 418.322L39.049 422.257L40.0235 415.564L12.6363 411.63Z" fill="#7D59ED"/>
<path d="M70.7916 368.204C68.081 368.204 65.8749 370.395 65.8749 373.087C65.8749 375.779 68.081 377.971 70.7916 377.971C73.5022 377.971 75.7083 375.779 75.7083 373.087C75.7083 370.395 73.5022 368.204 70.7916 368.204Z" fill="#7D59ED"/>
<path d="M95.4723 372.67L90.9231 367.584L71.7805 384.437L76.3543 389.487L95.4723 372.67Z" fill="#7D59ED"/>
<path d="M34.5149 384.725C29.6473 384.725 25.7781 388.568 25.7781 393.402C25.7781 398.235 29.6473 402.078 34.5149 402.078C39.3824 402.078 43.2505 398.173 43.2505 393.402C43.2505 388.63 39.3204 384.725 34.5149 384.725ZM34.5149 408.772C25.9665 408.772 18.9771 401.893 18.9771 393.402C18.9771 384.91 25.9665 377.97 34.5149 377.97C43.0632 377.97 49.9895 384.911 49.9895 393.402C49.9895 401.892 43.0632 408.772 34.5149 408.772Z" fill="#7D59ED"/>
<path d="M89.9447 428.535C93.141 427.93 93.9099 427.965 94.6578 428.902C94.9468 429.238 95.0229 429.709 94.907 430.227L101.683 431.372C102.108 428.88 101.497 426.522 99.9689 424.594C96.4461 420.363 91.7225 421.263 88.6116 421.886C85.1684 422.571 84.1198 422.566 82.8991 420.887C82.4414 420.287 82.4567 419.61 82.5199 419.125C82.6615 418.295 83.2045 417.508 83.9501 417.038C85.3334 416.166 87.2142 416.54 88.092 417.915L93.8408 414.294C90.9723 409.8 84.8828 408.444 80.3043 411.328C77.9624 412.804 76.2806 415.197 75.7633 417.895C75.3197 420.472 75.9096 422.918 77.4194 424.932C81.3354 430.249 86.5541 429.187 89.9447 428.536" fill="#7D59ED"/>
</g>
</g>
<defs>
<clipPath id="clip0_395_1624">
<rect width="94" height="420" fill="white"/>
</clipPath>
</defs>
</svg>
